<?xml version="1.0" encoding="UTF-8"?>
<!DOCTYPE svg PUBLIC "-//W3C//DTD SVG 1.1//EN" "http://www.w3.org/Graphics/SVG/1.1/DTD/svg11.dtd">
<!-- Creator: CorelDRAW -->
<svg xmlns="http://www.w3.org/2000/svg" xmlns:xlink="http://www.w3.org/1999/xlink" xml:space="preserve" width="186mm" height="37.2mm" style="shape-rendering:geometricPrecision; text-rendering:geometricPrecision; image-rendering:optimizeQuality; fill-rule:evenodd; clip-rule:evenodd"
viewBox="0 0 186 37.2">
 <defs>
  <style type="text/css">
   <![CDATA[
    .fil0 {fill:#C0A062}
   ]]>
  </style>
 </defs>
 <g id="Layer_x0020_1">
  <metadata id="CorelCorpID_0Corel-Layer"/>
  <g id="_195349480">
   <g>
    <g>
     <path id="_195239072" class="fil0" d="M183.013 18.4446l-0.3392 0c-0.0768,-8.3155 -6.8098,-15.0341 -15.1235,-15.1181l0 -0.3392c8.5062,0.0754 15.3821,6.9521 15.4627,15.4573zm0.2547 0l1.9819 0c-0.0538,-9.7662 -7.9377,-17.6227 -17.6993,-17.6938l0 0.615c0.0578,0.0188 0.1069,0.0476 0.1495,0.0903 0.1658,0.1658 0.1658,0.4344 0.0002,0.6 -0.0414,0.0414 -0.0894,0.0727 -0.1405,0.0933l-0.0014 0.5831c8.6415,0.0841 15.6329,7.0688 15.7096,15.7121zm-13.0573 -16.801c0.1658,0.1658 0.1658,0.4344 0.0002,0.6001 -0.1658,0.1656 -0.4344,0.1656 -0.6001,0 -0.1656,-0.1657 -0.1658,-0.4343 0,-0.6001 0.1657,-0.1656 0.4343,-0.1656 0.5999,0zm2.4548 0.5578c0.1658,0.1658 0.1658,0.4345 0.0002,0.6001 -0.1658,0.1656 -0.4344,0.1656 -0.6001,0 -0.1656,-0.1656 -0.1658,-0.4343 0,-0.6001 0.1657,-0.1656 0.4343,-0.1656 0.5999,0zm2.3437 0.9198c0.1656,0.1658 0.1656,0.4345 0,0.6001 -0.1657,0.1656 -0.4345,0.1656 -0.6001,0 -0.1657,-0.1656 -0.1657,-0.4343 0,-0.6001 0.1658,-0.1656 0.4344,-0.1656 0.6001,0zm2.1785 1.2623c0.1656,0.1658 0.1656,0.4344 0,0.6001 -0.1657,0.1656 -0.4345,0.1656 -0.6001,0 -0.1657,-0.1657 -0.1657,-0.4343 0,-0.6001 0.1658,-0.1657 0.4344,-0.1657 0.6001,0zm1.9663 1.572c0.1657,0.1656 0.1657,0.4342 0,0.6 -0.1656,0.1657 -0.4344,0.1657 -0.6001,0 -0.1656,-0.1656 -0.1656,-0.4342 0,-0.6 0.1658,-0.1657 0.4345,-0.1657 0.6001,0zm1.7118 1.8457c0.1657,0.1656 0.1657,0.4342 0,0.6 -0.1656,0.1657 -0.4344,0.1657 -0.6,0 -0.1657,-0.1656 -0.1657,-0.4342 0,-0.6 0.1658,-0.1657 0.4344,-0.1657 0.6,0zm1.4195 2.0785c0.1656,0.1656 0.1656,0.4343 0,0.6001 -0.1657,0.1656 -0.4345,0.1656 -0.6001,0 -0.1657,-0.1656 -0.1657,-0.4343 0,-0.6001 0.1658,-0.1656 0.4344,-0.1656 0.6001,0zm1.0935 2.2671c0.1658,0.1656 0.1658,0.4343 0.0002,0.6001 -0.1658,0.1656 -0.4344,0.1656 -0.6001,0 -0.1656,-0.1657 -0.1658,-0.4343 0,-0.6001 0.1657,-0.1656 0.4343,-0.1656 0.5999,0zm0.7413 2.4052c0.1658,0.1657 0.1658,0.4343 0.0002,0.6001 -0.1658,0.1656 -0.4345,0.1656 -0.6001,0 -0.1656,-0.1656 -0.1658,-0.4343 0,-0.6001 0.1656,-0.1656 0.4343,-0.1656 0.5999,0zm0.3723 2.4893c0.1657,0.1656 0.1657,0.4342 0,0.6 -0.1656,0.1657 -0.4344,0.1657 -0.6,0 -0.1657,-0.1656 -0.1657,-0.4342 0,-0.6 0.1658,-0.1657 0.4344,-0.1657 0.6,0z"/>
     <g>
      <path id="_195248672" class="fil0" d="M180.219 5.7813l-0.608 -0.608 1.1221 -1.1222c1.1191,-0.6484 0.5209,-2.3946 -0.9745,-1.3191l-0.2753 -0.3727c0.3739,-1.2521 1.0827,-2.0253 2.5285,-1.7449 0.7141,0.3152 0.6607,1.2446 -0.1596,2.7883 1.197,-0.9484 0.2963,-3.1885 3.5906,-2.8452 0.3433,3.2943 -1.8968,2.3936 -2.8452,3.5906 1.5437,-0.8203 2.4731,-0.8737 2.7883,-0.1596 0.2804,1.4458 -0.4928,2.1546 -1.7449,2.5285l-0.3727 -0.2753c1.0755,-1.4954 -0.6707,-2.0936 -1.3191,-0.9745l-1.1222 1.1221 -0.608 -0.608zm-2.8199 -2.9536c-0.7705,-0.7705 -1.1456,-1.4794 -2.3434,-1.2392 2.2435,-2.2435 3.3081,0.3091 2.4126,1.2047l-0.0692 0.0345zm5.7735 5.7735c0.7705,0.7705 1.4794,1.1456 1.2392,2.3434 2.2435,-2.2435 -0.3091,-3.3081 -1.2047,-2.4126l-0.0345 0.0692z"/>
      <polygon id="_195250488" class="fil0" points="177.575,7.209 168.977,15.8071 167.551,18.4446 170.057,17.1594 178.791,8.425 178.661,8.2838 169.841,17.1042 169.72,16.9783 178.538,8.1605 178.399,8.0214 168.819,17.6017 168.401,17.1796 177.979,7.6015 177.843,7.4659 168.994,16.315 168.871,16.1907 177.72,7.3425 "/>
      <path id="_195252976" class="fil0" d="M177.114 13.845c0.2433,-0.9696 0.3803,-1.3223 1.0256,-2.0795 0.1141,1.1915 -0.1723,1.2262 -1.0256,2.0795zm3.0376 2.7271c-1.1285,-0.0294 -1.9988,0.2039 -2.8534,-0.5557 1.1142,-0.3128 1.7743,0.1538 2.8534,0.5557zm-12.6016 1.8725l5.192 -0.0001c1.3166,-1.0708 2.5501,-1.4385 4.0279,-1.59 -0.2386,2.5561 2.9086,0.1764 5.0598,1.5205 -0.3389,-1.1455 -0.7968,-2.0618 -1.4538,-2.5945 -2.1811,-1.7681 -4.8212,0.8425 -6.8608,1.1313 1.0752,-0.6528 2.0887,-1.6159 3.2258,-1.9586 2.0892,-0.4298 2.5774,-2.3973 1.9694,-5.4182 -0.916,1.8415 -4.2508,2.4444 -2.1889,4.221 -0.4963,0.9761 -1.8606,1.4564 -2.7908,2.1846 -1.4909,0.1505 -2.859,1.4797 -3.729,1.009 -0.3356,-0.6157 0.8627,-0.6908 0.3169,-1.2682 -0.5773,-0.5459 -0.6524,0.6524 -1.2681,0.3168 -0.4707,-0.87 0.8586,-2.2381 1.009,-3.729 0.7282,-0.9303 1.2086,-2.2945 2.1846,-2.7908 1.7766,2.0619 2.3795,-1.2729 4.221,-2.189 -3.0208,-0.6079 -4.9884,-0.1197 -5.4182,1.9695 -0.3427,1.1371 -1.3058,2.1506 -1.9586,3.2258 0.2888,-2.0396 2.8994,-4.6797 1.1313,-6.8608 -0.5326,-0.657 -1.449,-1.115 -2.5945,-1.4538 1.3441,2.1512 -1.0356,5.2984 1.5205,5.0597 -0.1515,1.4778 -0.5247,2.7186 -1.5955,4.0351l0 5.1797zm4.605 -9.5588c0.9696,-0.2434 1.3223,-0.3803 2.0795,-1.0256 -1.1915,-0.1142 -1.2262,0.1723 -2.0795,1.0256zm-2.7271 -3.0377c0.0294,1.1286 -0.2039,1.9989 0.5557,2.8535 0.3128,-1.1142 -0.1538,-1.7743 -0.5557,-2.8535z"/>
     </g>
    </g>
    <g>
     <path id="_146709520" class="fil0" d="M183.013 18.7556l-0.3392 0c-0.0768,8.3155 -6.8098,15.0341 -15.1235,15.1181l0 0.3392c8.5062,-0.0754 15.3821,-6.9521 15.4627,-15.4573zm0.2547 0l1.9819 0c-0.0538,9.7662 -7.9377,17.6227 -17.6993,17.6938l0 -0.615c0.0578,-0.0188 0.1069,-0.0476 0.1495,-0.0903 0.1658,-0.1658 0.1658,-0.4344 0.0002,-0.6 -0.0414,-0.0414 -0.0894,-0.0727 -0.1405,-0.0933l-0.0014 -0.5831c8.6415,-0.0841 15.6329,-7.0688 15.7096,-15.7121zm-13.0573 16.801c0.1658,-0.1658 0.1658,-0.4344 0.0002,-0.6001 -0.1658,-0.1656 -0.4344,-0.1656 -0.6001,0 -0.1656,0.1657 -0.1658,0.4343 0,0.6001 0.1657,0.1656 0.4343,0.1656 0.5999,0zm2.4548 -0.5578c0.1658,-0.1658 0.1658,-0.4345 0.0002,-0.6001 -0.1658,-0.1656 -0.4344,-0.1656 -0.6001,0 -0.1656,0.1656 -0.1658,0.4343 0,0.6001 0.1657,0.1656 0.4343,0.1656 0.5999,0zm2.3437 -0.9198c0.1656,-0.1658 0.1656,-0.4345 0,-0.6001 -0.1657,-0.1656 -0.4345,-0.1656 -0.6001,0 -0.1657,0.1656 -0.1657,0.4343 0,0.6001 0.1658,0.1656 0.4344,0.1656 0.6001,0zm2.1785 -1.2623c0.1656,-0.1658 0.1656,-0.4344 0,-0.6001 -0.1657,-0.1656 -0.4345,-0.1656 -0.6001,0 -0.1657,0.1657 -0.1657,0.4343 0,0.6001 0.1658,0.1657 0.4344,0.1657 0.6001,0zm1.9663 -1.572c0.1657,-0.1656 0.1657,-0.4342 0,-0.6 -0.1656,-0.1657 -0.4344,-0.1657 -0.6001,0 -0.1656,0.1656 -0.1656,0.4342 0,0.6 0.1658,0.1657 0.4345,0.1657 0.6001,0zm1.7118 -1.8457c0.1657,-0.1656 0.1657,-0.4342 0,-0.6 -0.1656,-0.1657 -0.4344,-0.1657 -0.6,0 -0.1657,0.1656 -0.1657,0.4342 0,0.6 0.1658,0.1657 0.4344,0.1657 0.6,0zm1.4195 -2.0785c0.1656,-0.1656 0.1656,-0.4343 0,-0.6001 -0.1657,-0.1656 -0.4345,-0.1656 -0.6001,0 -0.1657,0.1656 -0.1657,0.4343 0,0.6001 0.1658,0.1656 0.4344,0.1656 0.6001,0zm1.0935 -2.2671c0.1658,-0.1656 0.1658,-0.4343 0.0002,-0.6001 -0.1658,-0.1656 -0.4344,-0.1656 -0.6001,0 -0.1656,0.1657 -0.1658,0.4343 0,0.6001 0.1657,0.1656 0.4343,0.1656 0.5999,0zm0.7413 -2.4052c0.1658,-0.1657 0.1658,-0.4343 0.0002,-0.6001 -0.1658,-0.1656 -0.4345,-0.1656 -0.6001,0 -0.1656,0.1656 -0.1658,0.4343 0,0.6001 0.1656,0.1656 0.4343,0.1656 0.5999,0zm0.3723 -2.4893c0.1657,-0.1656 0.1657,-0.4342 0,-0.6 -0.1656,-0.1657 -0.4344,-0.1657 -0.6,0 -0.1657,0.1656 -0.1657,0.4342 0,0.6 0.1658,0.1657 0.4344,0.1657 0.6,0z"/>
     <g>
      <path id="_147021072" class="fil0" d="M180.219 31.4189l-0.608 0.608 1.1221 1.1222c1.1191,0.6484 0.5209,2.3946 -0.9745,1.3191l-0.2753 0.3727c0.3739,1.2521 1.0827,2.0253 2.5285,1.7449 0.7141,-0.3152 0.6607,-1.2446 -0.1596,-2.7883 1.197,0.9484 0.2963,3.1885 3.5906,2.8452 0.3433,-3.2943 -1.8968,-2.3936 -2.8452,-3.5906 1.5437,0.8203 2.4731,0.8737 2.7883,0.1596 0.2804,-1.4458 -0.4928,-2.1546 -1.7449,-2.5285l-0.3727 0.2753c1.0755,1.4954 -0.6707,2.0936 -1.3191,0.9745l-1.1222 -1.1221 -0.608 0.608zm-2.8199 2.9536c-0.7705,0.7705 -1.1456,1.4794 -2.3434,1.2392 2.2435,2.2435 3.3081,-0.3091 2.4126,-1.2047l-0.0692 -0.0345zm5.7735 -5.7735c0.7705,-0.7705 1.4794,-1.1456 1.2392,-2.3434 2.2435,2.2435 -0.3091,3.3081 -1.2047,2.4126l-0.0345 -0.0692z"/>
      <polygon id="_148216384" class="fil0" points="177.575,29.9912 168.977,21.3931 167.55,18.7556 170.057,20.0408 178.791,28.7752 178.661,28.9164 169.84,20.096 169.72,20.2219 178.538,29.0397 178.399,29.1788 168.818,19.5985 168.4,20.0206 177.979,29.5987 177.843,29.7343 168.994,20.8852 168.871,21.0095 177.719,29.8577 "/>
      <path id="_195342552" class="fil0" d="M177.114 23.3552c0.2433,0.9696 0.3803,1.3223 1.0256,2.0795 0.1141,-1.1915 -0.1723,-1.2262 -1.0256,-2.0795zm3.0376 -2.7271c-1.1285,0.0294 -1.9988,-0.2039 -2.8534,0.5557 1.1142,0.3128 1.7743,-0.1538 2.8534,-0.5557zm-12.6016 -1.8725l5.192 0.0001c1.3166,1.0708 2.5501,1.4385 4.0279,1.59 -0.2386,-2.5561 2.9086,-0.1764 5.0598,-1.5205 -0.3389,1.1455 -0.7968,2.0618 -1.4538,2.5945 -2.1811,1.7681 -4.8212,-0.8425 -6.8608,-1.1313 1.0752,0.6528 2.0887,1.6159 3.2258,1.9586 2.0892,0.4298 2.5774,2.3973 1.9694,5.4182 -0.916,-1.8415 -4.2508,-2.4444 -2.1889,-4.221 -0.4963,-0.9761 -1.8606,-1.4564 -2.7908,-2.1846 -1.4909,-0.1505 -2.859,-1.4797 -3.729,-1.009 -0.3356,0.6157 0.8627,0.6908 0.3169,1.2682 -0.5773,0.5459 -0.6524,-0.6524 -1.2681,-0.3168 -0.4707,0.87 0.8586,2.2381 1.009,3.729 0.7282,0.9303 1.2086,2.2945 2.1846,2.7908 1.7766,-2.0619 2.3795,1.2729 4.221,2.189 -3.0208,0.6079 -4.9884,0.1197 -5.4182,-1.9695 -0.3427,-1.1371 -1.3058,-2.1506 -1.9586,-3.2258 0.2888,2.0396 2.8994,4.6797 1.1313,6.8608 -0.5326,0.657 -1.449,1.115 -2.5945,1.4538 1.3441,-2.1512 -1.0356,-5.2984 1.5205,-5.0597 -0.1515,-1.4778 -0.5247,-2.7186 -1.5955,-4.0351l0 -5.1797zm4.605 9.5588c0.9696,0.2434 1.3223,0.3803 2.0795,1.0256 -1.1915,0.1142 -1.2262,-0.1723 -2.0795,-1.0256zm-2.7271 3.0377c0.0294,-1.1286 -0.2039,-1.9989 0.5557,-2.8535 0.3128,1.1142 -0.1538,1.7743 -0.5557,2.8535z"/>
     </g>
    </g>
    <g>
     <path id="_195291776" class="fil0" d="M151.787 18.4444l0.3392 0c0.0768,-8.3155 6.8098,-15.0341 15.1235,-15.1181l0 -0.3392c-8.5062,0.0754 -15.3821,6.9521 -15.4627,15.4573zm-0.2547 0l-1.9819 0c0.0538,-9.7662 7.9377,-17.6227 17.6993,-17.6938l0 0.615c-0.0578,0.0188 -0.1069,0.0476 -0.1495,0.0903 -0.1658,0.1658 -0.1658,0.4344 -0.0002,0.6 0.0414,0.0414 0.0894,0.0727 0.1405,0.0933l0.0014 0.5831c-8.6415,0.0841 -15.6329,7.0688 -15.7096,15.7121zm13.0573 -16.801c-0.1658,0.1658 -0.1658,0.4344 -0.0002,0.6001 0.1658,0.1656 0.4344,0.1656 0.6001,0 0.1656,-0.1657 0.1658,-0.4343 0,-0.6001 -0.1657,-0.1656 -0.4343,-0.1656 -0.5999,0zm-2.4548 0.5578c-0.1658,0.1658 -0.1658,0.4345 -0.0002,0.6001 0.1658,0.1656 0.4344,0.1656 0.6001,0 0.1656,-0.1656 0.1658,-0.4343 0,-0.6001 -0.1657,-0.1656 -0.4343,-0.1656 -0.5999,0zm-2.3437 0.9198c-0.1656,0.1658 -0.1656,0.4345 0,0.6001 0.1657,0.1656 0.4345,0.1656 0.6001,0 0.1657,-0.1656 0.1657,-0.4343 0,-0.6001 -0.1658,-0.1656 -0.4344,-0.1656 -0.6001,0zm-2.1785 1.2623c-0.1656,0.1658 -0.1656,0.4344 0,0.6001 0.1657,0.1656 0.4345,0.1656 0.6001,0 0.1657,-0.1657 0.1657,-0.4343 0,-0.6001 -0.1658,-0.1657 -0.4344,-0.1657 -0.6001,0zm-1.9663 1.572c-0.1657,0.1656 -0.1657,0.4342 0,0.6 0.1656,0.1657 0.4344,0.1657 0.6001,0 0.1656,-0.1656 0.1656,-0.4342 0,-0.6 -0.1658,-0.1657 -0.4345,-0.1657 -0.6001,0zm-1.7118 1.8457c-0.1657,0.1656 -0.1657,0.4342 0,0.6 0.1656,0.1657 0.4344,0.1657 0.6,0 0.1657,-0.1656 0.1657,-0.4342 0,-0.6 -0.1658,-0.1657 -0.4344,-0.1657 -0.6,0zm-1.4195 2.0785c-0.1656,0.1656 -0.1656,0.4343 0,0.6001 0.1657,0.1656 0.4345,0.1656 0.6001,0 0.1657,-0.1656 0.1657,-0.4343 0,-0.6001 -0.1658,-0.1656 -0.4344,-0.1656 -0.6001,0zm-1.0935 2.2671c-0.1658,0.1656 -0.1658,0.4343 -0.0002,0.6001 0.1658,0.1656 0.4344,0.1656 0.6001,0 0.1656,-0.1657 0.1658,-0.4343 0,-0.6001 -0.1657,-0.1656 -0.4343,-0.1656 -0.5999,0zm-0.7413 2.4052c-0.1658,0.1657 -0.1658,0.4343 -0.0002,0.6001 0.1658,0.1656 0.4345,0.1656 0.6001,0 0.1656,-0.1656 0.1658,-0.4343 0,-0.6001 -0.1656,-0.1656 -0.4343,-0.1656 -0.5999,0zm-0.3723 2.4893c-0.1657,0.1656 -0.1657,0.4342 0,0.6 0.1656,0.1657 0.4344,0.1657 0.6,0 0.1657,-0.1656 0.1657,-0.4342 0,-0.6 -0.1658,-0.1657 -0.4344,-0.1657 -0.6,0z"/>
     <g>
      <path id="_144546240" class="fil0" d="M154.581 5.7811l0.608 -0.608 -1.1221 -1.1222c-1.1191,-0.6484 -0.5209,-2.3946 0.9745,-1.3191l0.2753 -0.3727c-0.3739,-1.2521 -1.0827,-2.0253 -2.5285,-1.7449 -0.7141,0.3152 -0.6607,1.2446 0.1596,2.7883 -1.197,-0.9484 -0.2963,-3.1885 -3.5906,-2.8452 -0.3433,3.2943 1.8968,2.3936 2.8452,3.5906 -1.5437,-0.8203 -2.4731,-0.8737 -2.7883,-0.1596 -0.2804,1.4458 0.4928,2.1546 1.7449,2.5285l0.3727 -0.2753c-1.0755,-1.4954 0.6707,-2.0936 1.3191,-0.9745l1.1222 1.1221 0.608 -0.608zm2.8199 -2.9536c0.7705,-0.7705 1.1456,-1.4794 2.3434,-1.2392 -2.2435,-2.2435 -3.3081,0.3091 -2.4126,1.2047l0.0692 0.0345zm-5.7735 5.7735c-0.7705,0.7705 -1.4794,1.1456 -1.2392,2.3434 -2.2435,-2.2435 0.3091,-3.3081 1.2047,-2.4126l0.0345 0.0692z"/>
      <polygon id="_146427272" class="fil0" points="157.225,7.2088 165.823,15.8069 167.25,18.4444 164.743,17.1592 156.009,8.4248 156.139,8.2836 164.96,17.104 165.08,16.9781 156.263,8.1603 156.402,8.0212 165.982,17.6015 166.4,17.1794 156.821,7.6013 156.957,7.4657 165.806,16.3148 165.929,16.1905 157.081,7.3423 "/>
      <path id="_196882128" class="fil0" d="M157.686 13.8448c-0.2433,-0.9696 -0.3803,-1.3223 -1.0256,-2.0795 -0.1141,1.1915 0.1723,1.2262 1.0256,2.0795zm-3.0376 2.7271c1.1285,-0.0294 1.9988,0.2039 2.8534,-0.5557 -1.1142,-0.3128 -1.7743,0.1538 -2.8534,0.5557zm12.6016 1.8725l-5.192 -0.0001c-1.3166,-1.0708 -2.5501,-1.4385 -4.0279,-1.59 0.2386,2.5561 -2.9086,0.1764 -5.0598,1.5205 0.3389,-1.1455 0.7968,-2.0618 1.4538,-2.5945 2.1811,-1.7681 4.8212,0.8425 6.8608,1.1313 -1.0752,-0.6528 -2.0887,-1.6159 -3.2258,-1.9586 -2.0892,-0.4298 -2.5774,-2.3973 -1.9694,-5.4182 0.916,1.8415 4.2508,2.4444 2.1889,4.221 0.4963,0.9761 1.8606,1.4564 2.7908,2.1846 1.4909,0.1505 2.859,1.4797 3.729,1.009 0.3356,-0.6157 -0.8627,-0.6908 -0.3169,-1.2682 0.5773,-0.5459 0.6524,0.6524 1.2681,0.3168 0.4707,-0.87 -0.8586,-2.2381 -1.009,-3.729 -0.7282,-0.9303 -1.2086,-2.2945 -2.1846,-2.7908 -1.7766,2.0619 -2.3795,-1.2729 -4.221,-2.189 3.0208,-0.6079 4.9884,-0.1197 5.4182,1.9695 0.3427,1.1371 1.3058,2.1506 1.9586,3.2258 -0.2888,-2.0396 -2.8994,-4.6797 -1.1313,-6.8608 0.5326,-0.657 1.449,-1.115 2.5945,-1.4538 -1.3441,2.1512 1.0356,5.2984 -1.5205,5.0597 0.1515,1.4778 0.5247,2.7186 1.5955,4.0351l0 5.1797zm-4.605 -9.5588c-0.9696,-0.2434 -1.3223,-0.3803 -2.0795,-1.0256 1.1915,-0.1142 1.2262,0.1723 2.0795,1.0256zm2.7271 -3.0377c-0.0294,1.1286 0.2039,1.9989 -0.5557,2.8535 -0.3128,-1.1142 0.1538,-1.7743 0.5557,-2.8535z"/>
     </g>
    </g>
    <g>
     <path id="_146273488" class="fil0" d="M151.787 18.7558l0.3392 0c0.0768,8.3155 6.8098,15.0341 15.1235,15.1181l0 0.3392c-8.5062,-0.0754 -15.3821,-6.9521 -15.4627,-15.4573zm-0.2547 0l-1.9819 0c0.0538,9.7662 7.9377,17.6227 17.6993,17.6938l0 -0.615c-0.0578,-0.0188 -0.1069,-0.0476 -0.1495,-0.0903 -0.1658,-0.1658 -0.1658,-0.4344 -0.0002,-0.6 0.0414,-0.0414 0.0894,-0.0727 0.1405,-0.0933l0.0014 -0.5831c-8.6415,-0.0841 -15.6329,-7.0688 -15.7096,-15.7121zm13.0573 16.801c-0.1658,-0.1658 -0.1658,-0.4344 -0.0002,-0.6001 0.1658,-0.1656 0.4344,-0.1656 0.6001,0 0.1656,0.1657 0.1658,0.4343 0,0.6001 -0.1657,0.1656 -0.4343,0.1656 -0.5999,0zm-2.4548 -0.5578c-0.1658,-0.1658 -0.1658,-0.4345 -0.0002,-0.6001 0.1658,-0.1656 0.4344,-0.1656 0.6001,0 0.1656,0.1656 0.1658,0.4343 0,0.6001 -0.1657,0.1656 -0.4343,0.1656 -0.5999,0zm-2.3437 -0.9198c-0.1656,-0.1658 -0.1656,-0.4345 0,-0.6001 0.1657,-0.1656 0.4345,-0.1656 0.6001,0 0.1657,0.1656 0.1657,0.4343 0,0.6001 -0.1658,0.1656 -0.4344,0.1656 -0.6001,0zm-2.1785 -1.2623c-0.1656,-0.1658 -0.1656,-0.4344 0,-0.6001 0.1657,-0.1656 0.4345,-0.1656 0.6001,0 0.1657,0.1657 0.1657,0.4343 0,0.6001 -0.1658,0.1657 -0.4344,0.1657 -0.6001,0zm-1.9663 -1.572c-0.1657,-0.1656 -0.1657,-0.4342 0,-0.6 0.1656,-0.1657 0.4344,-0.1657 0.6001,0 0.1656,0.1656 0.1656,0.4342 0,0.6 -0.1658,0.1657 -0.4345,0.1657 -0.6001,0zm-1.7118 -1.8457c-0.1657,-0.1656 -0.1657,-0.4342 0,-0.6 0.1656,-0.1657 0.4344,-0.1657 0.6,0 0.1657,0.1656 0.1657,0.4342 0,0.6 -0.1658,0.1657 -0.4344,0.1657 -0.6,0zm-1.4195 -2.0785c-0.1656,-0.1656 -0.1656,-0.4343 0,-0.6001 0.1657,-0.1656 0.4345,-0.1656 0.6001,0 0.1657,0.1656 0.1657,0.4343 0,0.6001 -0.1658,0.1656 -0.4344,0.1656 -0.6001,0zm-1.0935 -2.2671c-0.1658,-0.1656 -0.1658,-0.4343 -0.0002,-0.6001 0.1658,-0.1656 0.4344,-0.1656 0.6001,0 0.1656,0.1657 0.1658,0.4343 0,0.6001 -0.1657,0.1656 -0.4343,0.1656 -0.5999,0zm-0.7413 -2.4052c-0.1658,-0.1657 -0.1658,-0.4343 -0.0002,-0.6001 0.1658,-0.1656 0.4345,-0.1656 0.6001,0 0.1656,0.1656 0.1658,0.4343 0,0.6001 -0.1656,0.1656 -0.4343,0.1656 -0.5999,0zm-0.3723 -2.4893c-0.1657,-0.1656 -0.1657,-0.4342 0,-0.6 0.1656,-0.1657 0.4344,-0.1657 0.6,0 0.1657,0.1656 0.1657,0.4342 0,0.6 -0.1658,0.1657 -0.4344,0.1657 -0.6,0z"/>
     <g>
      <path id="_195284104" class="fil0" d="M154.581 31.4191l0.608 0.608 -1.1221 1.1222c-1.1191,0.6484 -0.5209,2.3946 0.9745,1.3191l0.2753 0.3727c-0.3739,1.2521 -1.0827,2.0253 -2.5285,1.7449 -0.7141,-0.3152 -0.6607,-1.2446 0.1596,-2.7883 -1.197,0.9484 -0.2963,3.1885 -3.5906,2.8452 -0.3433,-3.2943 1.8968,-2.3936 2.8452,-3.5906 -1.5437,0.8203 -2.4731,0.8737 -2.7883,0.1596 -0.2804,-1.4458 0.4928,-2.1546 1.7449,-2.5285l0.3727 0.2753c-1.0755,1.4954 0.6707,2.0936 1.3191,0.9745l1.1222 -1.1221 0.608 0.608zm2.8199 2.9536c0.7705,0.7705 1.1456,1.4794 2.3434,1.2392 -2.2435,2.2435 -3.3081,-0.3091 -2.4126,-1.2047l0.0692 -0.0345zm-5.7735 -5.7735c-0.7705,-0.7705 -1.4794,-1.1456 -1.2392,-2.3434 -2.2435,2.2435 0.3091,3.3081 1.2047,2.4126l0.0345 -0.0692z"/>
      <polygon id="_195283008" class="fil0" points="157.225,29.9914 165.823,21.3933 167.25,18.7558 164.743,20.041 156.009,28.7754 156.139,28.9166 164.959,20.0962 165.08,20.2221 156.262,29.0399 156.401,29.179 165.981,19.5987 166.399,20.0208 156.821,29.5989 156.957,29.7345 165.806,20.8854 165.929,21.0097 157.081,29.8579 "/>
      <path id="_195281912" class="fil0" d="M157.686 23.3554c-0.2433,0.9696 -0.3803,1.3223 -1.0256,2.0795 -0.1141,-1.1915 0.1723,-1.2262 1.0256,-2.0795zm-3.0376 -2.7271c1.1285,0.0294 1.9988,-0.2039 2.8534,0.5557 -1.1142,0.3128 -1.7743,-0.1538 -2.8534,-0.5557zm12.6016 -1.8725l-5.192 0.0001c-1.3166,1.0708 -2.5501,1.4385 -4.0279,1.59 0.2386,-2.5561 -2.9086,-0.1764 -5.0598,-1.5205 0.3389,1.1455 0.7968,2.0618 1.4538,2.5945 2.1811,1.7681 4.8212,-0.8425 6.8608,-1.1313 -1.0752,0.6528 -2.0887,1.6159 -3.2258,1.9586 -2.0892,0.4298 -2.5774,2.3973 -1.9694,5.4182 0.916,-1.8415 4.2508,-2.4444 2.1889,-4.221 0.4963,-0.9761 1.8606,-1.4564 2.7908,-2.1846 1.4909,-0.1505 2.859,-1.4797 3.729,-1.009 0.3356,0.6157 -0.8627,0.6908 -0.3169,1.2682 0.5773,0.5459 0.6524,-0.6524 1.2681,-0.3168 0.4707,0.87 -0.8586,2.2381 -1.009,3.729 -0.7282,0.9303 -1.2086,2.2945 -2.1846,2.7908 -1.7766,-2.0619 -2.3795,1.2729 -4.221,2.189 3.0208,0.6079 4.9884,0.1197 5.4182,-1.9695 0.3427,-1.1371 1.3058,-2.1506 1.9586,-3.2258 -0.2888,2.0396 -2.8994,4.6797 -1.1313,6.8608 0.5326,0.657 1.449,1.115 2.5945,1.4538 -1.3441,-2.1512 1.0356,-5.2984 -1.5205,-5.0597 0.1515,-1.4778 0.5247,-2.7186 1.5955,-4.0351l0 -5.1797zm-4.605 9.5588c-0.9696,0.2434 -1.3223,0.3803 -2.0795,1.0256 1.1915,0.1142 1.2262,-0.1723 2.0795,-1.0256zm2.7271 3.0377c-0.0294,-1.1286 0.2039,-1.9989 -0.5557,-2.8535 -0.3128,1.1142 0.1538,1.7743 0.5557,2.8535z"/>
     </g>
    </g>
   </g>
   <g>
    <g>
     <path id="_146640384" class="fil0" d="M108.613 18.4446l-0.3392 0c-0.0768,-8.3155 -6.8098,-15.0341 -15.1235,-15.1181l0 -0.3392c8.5062,0.0754 15.3821,6.9521 15.4627,15.4573zm0.2547 0l1.9819 0c-0.0538,-9.7662 -7.9377,-17.6227 -17.6993,-17.6938l0 0.615c0.0578,0.0188 0.1069,0.0476 0.1495,0.0903 0.1658,0.1658 0.1658,0.4344 0.0002,0.6 -0.0414,0.0414 -0.0894,0.0727 -0.1405,0.0933l-0.0014 0.5831c8.6415,0.0841 15.6329,7.0688 15.7096,15.7121zm-13.0573 -16.801c0.1658,0.1658 0.1658,0.4344 0.0002,0.6001 -0.1658,0.1656 -0.4344,0.1656 -0.6001,0 -0.1656,-0.1657 -0.1658,-0.4343 0,-0.6001 0.1657,-0.1656 0.4343,-0.1656 0.5999,0zm2.4548 0.5578c0.1658,0.1658 0.1658,0.4345 0.0002,0.6001 -0.1658,0.1656 -0.4344,0.1656 -0.6001,0 -0.1656,-0.1656 -0.1658,-0.4343 0,-0.6001 0.1657,-0.1656 0.4343,-0.1656 0.5999,0zm2.3437 0.9198c0.1656,0.1658 0.1656,0.4345 0,0.6001 -0.1657,0.1656 -0.4345,0.1656 -0.6001,0 -0.1657,-0.1656 -0.1657,-0.4343 0,-0.6001 0.1658,-0.1656 0.4344,-0.1656 0.6001,0zm2.1785 1.2623c0.1656,0.1658 0.1656,0.4344 0,0.6001 -0.1657,0.1656 -0.4345,0.1656 -0.6001,0 -0.1657,-0.1657 -0.1657,-0.4343 0,-0.6001 0.1658,-0.1657 0.4344,-0.1657 0.6001,0zm1.9663 1.572c0.1657,0.1656 0.1657,0.4342 0,0.6 -0.1656,0.1657 -0.4344,0.1657 -0.6001,0 -0.1656,-0.1656 -0.1656,-0.4342 0,-0.6 0.1658,-0.1657 0.4345,-0.1657 0.6001,0zm1.7118 1.8457c0.1657,0.1656 0.1657,0.4342 0,0.6 -0.1656,0.1657 -0.4344,0.1657 -0.6,0 -0.1657,-0.1656 -0.1657,-0.4342 0,-0.6 0.1658,-0.1657 0.4344,-0.1657 0.6,0zm1.4195 2.0785c0.1656,0.1656 0.1656,0.4343 0,0.6001 -0.1657,0.1656 -0.4345,0.1656 -0.6001,0 -0.1657,-0.1656 -0.1657,-0.4343 0,-0.6001 0.1658,-0.1656 0.4344,-0.1656 0.6001,0zm1.0935 2.2671c0.1658,0.1656 0.1658,0.4343 0.0002,0.6001 -0.1658,0.1656 -0.4344,0.1656 -0.6001,0 -0.1656,-0.1657 -0.1658,-0.4343 0,-0.6001 0.1657,-0.1656 0.4343,-0.1656 0.5999,0zm0.7413 2.4052c0.1658,0.1657 0.1658,0.4343 0.0002,0.6001 -0.1658,0.1656 -0.4345,0.1656 -0.6001,0 -0.1656,-0.1656 -0.1658,-0.4343 0,-0.6001 0.1656,-0.1656 0.4343,-0.1656 0.5999,0zm0.3723 2.4893c0.1657,0.1656 0.1657,0.4342 0,0.6 -0.1656,0.1657 -0.4344,0.1657 -0.6,0 -0.1657,-0.1656 -0.1657,-0.4342 0,-0.6 0.1658,-0.1657 0.4344,-0.1657 0.6,0z"/>
     <g>
      <path id="_195293976" class="fil0" d="M105.819 5.7813l-0.608 -0.608 1.1221 -1.1222c1.1191,-0.6484 0.5209,-2.3946 -0.9745,-1.3191l-0.2753 -0.3727c0.3739,-1.2521 1.0827,-2.0253 2.5285,-1.7449 0.7141,0.3152 0.6607,1.2446 -0.1596,2.7883 1.197,-0.9484 0.2963,-3.1885 3.5906,-2.8452 0.3433,3.2943 -1.8968,2.3936 -2.8452,3.5906 1.5437,-0.8203 2.4731,-0.8737 2.7883,-0.1596 0.2804,1.4458 -0.4928,2.1546 -1.7449,2.5285l-0.3727 -0.2753c1.0755,-1.4954 -0.6707,-2.0936 -1.3191,-0.9745l-1.1222 1.1221 -0.608 -0.608zm-2.8199 -2.9536c-0.7705,-0.7705 -1.1456,-1.4794 -2.3434,-1.2392 2.2435,-2.2435 3.3081,0.3091 2.4126,1.2047l-0.0692 0.0345zm5.7735 5.7735c0.7705,0.7705 1.4794,1.1456 1.2392,2.3434 2.2435,-2.2435 -0.3091,-3.3081 -1.2047,-2.4126l-0.0345 0.0692z"/>
      <polygon id="_195295072" class="fil0" points="103.175,7.209 94.5769,15.8071 93.1505,18.4446 95.657,17.1594 104.391,8.425 104.261,8.2838 95.4406,17.1042 95.3199,16.9783 104.138,8.1605 103.999,8.0214 94.4186,17.6017 94.0006,17.1796 103.579,7.6015 103.443,7.4659 94.5938,16.315 94.4714,16.1907 103.32,7.3425 "/>
      <path id="_195296168" class="fil0" d="M102.714 13.845c0.2433,-0.9696 0.3803,-1.3223 1.0256,-2.0795 0.1141,1.1915 -0.1723,1.2262 -1.0256,2.0795zm3.0376 2.7271c-1.1285,-0.0294 -1.9988,0.2039 -2.8534,-0.5557 1.1142,-0.3128 1.7743,0.1538 2.8534,0.5557zm-12.6016 1.8725l5.192 -0.0001c1.3166,-1.0708 2.5501,-1.4385 4.0279,-1.59 -0.2386,2.5561 2.9086,0.1764 5.0598,1.5205 -0.3389,-1.1455 -0.7968,-2.0618 -1.4538,-2.5945 -2.1811,-1.7681 -4.8212,0.8425 -6.8608,1.1313 1.0752,-0.6528 2.0887,-1.6159 3.2258,-1.9586 2.0892,-0.4298 2.5774,-2.3973 1.9694,-5.4182 -0.916,1.8415 -4.2508,2.4444 -2.1889,4.221 -0.4963,0.9761 -1.8606,1.4564 -2.7908,2.1846 -1.4909,0.1505 -2.859,1.4797 -3.729,1.009 -0.3356,-0.6157 0.8627,-0.6908 0.3169,-1.2682 -0.5773,-0.5459 -0.6524,0.6524 -1.2681,0.3168 -0.4707,-0.87 0.8586,-2.2381 1.009,-3.729 0.7282,-0.9303 1.2086,-2.2945 2.1846,-2.7908 1.7766,2.0619 2.3795,-1.2729 4.221,-2.189 -3.0208,-0.6079 -4.9884,-0.1197 -5.4182,1.9695 -0.3427,1.1371 -1.3058,2.1506 -1.9586,3.2258 0.2888,-2.0396 2.8994,-4.6797 1.1313,-6.8608 -0.5326,-0.657 -1.449,-1.115 -2.5945,-1.4538 1.3441,2.1512 -1.0356,5.2984 1.5205,5.0597 -0.1515,1.4778 -0.5247,2.7186 -1.5955,4.0351l0 5.1797zm4.605 -9.5588c0.9696,-0.2434 1.3223,-0.3803 2.0795,-1.0256 -1.1915,-0.1142 -1.2262,0.1723 -2.0795,1.0256zm-2.7271 -3.0377c0.0294,1.1286 -0.2039,1.9989 0.5557,2.8535 0.3128,-1.1142 -0.1538,-1.7743 -0.5557,-2.8535z"/>
     </g>
    </g>
    <g>
     <path id="_195297264" class="fil0" d="M108.613 18.7556l-0.3392 0c-0.0768,8.3155 -6.8098,15.0341 -15.1235,15.1181l0 0.3392c8.5062,-0.0754 15.3821,-6.9521 15.4627,-15.4573zm0.2547 0l1.9819 0c-0.0538,9.7662 -7.9377,17.6227 -17.6993,17.6938l0 -0.615c0.0578,-0.0188 0.1069,-0.0476 0.1495,-0.0903 0.1658,-0.1658 0.1658,-0.4344 0.0002,-0.6 -0.0414,-0.0414 -0.0894,-0.0727 -0.1405,-0.0933l-0.0014 -0.5831c8.6415,-0.0841 15.6329,-7.0688 15.7096,-15.7121zm-13.0573 16.801c0.1658,-0.1658 0.1658,-0.4344 0.0002,-0.6001 -0.1658,-0.1656 -0.4344,-0.1656 -0.6001,0 -0.1656,0.1657 -0.1658,0.4343 0,0.6001 0.1657,0.1656 0.4343,0.1656 0.5999,0zm2.4548 -0.5578c0.1658,-0.1658 0.1658,-0.4345 0.0002,-0.6001 -0.1658,-0.1656 -0.4344,-0.1656 -0.6001,0 -0.1656,0.1656 -0.1658,0.4343 0,0.6001 0.1657,0.1656 0.4343,0.1656 0.5999,0zm2.3437 -0.9198c0.1656,-0.1658 0.1656,-0.4345 0,-0.6001 -0.1657,-0.1656 -0.4345,-0.1656 -0.6001,0 -0.1657,0.1656 -0.1657,0.4343 0,0.6001 0.1658,0.1656 0.4344,0.1656 0.6001,0zm2.1785 -1.2623c0.1656,-0.1658 0.1656,-0.4344 0,-0.6001 -0.1657,-0.1656 -0.4345,-0.1656 -0.6001,0 -0.1657,0.1657 -0.1657,0.4343 0,0.6001 0.1658,0.1657 0.4344,0.1657 0.6001,0zm1.9663 -1.572c0.1657,-0.1656 0.1657,-0.4342 0,-0.6 -0.1656,-0.1657 -0.4344,-0.1657 -0.6001,0 -0.1656,0.1656 -0.1656,0.4342 0,0.6 0.1658,0.1657 0.4345,0.1657 0.6001,0zm1.7118 -1.8457c0.1657,-0.1656 0.1657,-0.4342 0,-0.6 -0.1656,-0.1657 -0.4344,-0.1657 -0.6,0 -0.1657,0.1656 -0.1657,0.4342 0,0.6 0.1658,0.1657 0.4344,0.1657 0.6,0zm1.4195 -2.0785c0.1656,-0.1656 0.1656,-0.4343 0,-0.6001 -0.1657,-0.1656 -0.4345,-0.1656 -0.6001,0 -0.1657,0.1656 -0.1657,0.4343 0,0.6001 0.1658,0.1656 0.4344,0.1656 0.6001,0zm1.0935 -2.2671c0.1658,-0.1656 0.1658,-0.4343 0.0002,-0.6001 -0.1658,-0.1656 -0.4344,-0.1656 -0.6001,0 -0.1656,0.1657 -0.1658,0.4343 0,0.6001 0.1657,0.1656 0.4343,0.1656 0.5999,0zm0.7413 -2.4052c0.1658,-0.1657 0.1658,-0.4343 0.0002,-0.6001 -0.1658,-0.1656 -0.4345,-0.1656 -0.6001,0 -0.1656,0.1656 -0.1658,0.4343 0,0.6001 0.1656,0.1656 0.4343,0.1656 0.5999,0zm0.3723 -2.4893c0.1657,-0.1656 0.1657,-0.4342 0,-0.6 -0.1656,-0.1657 -0.4344,-0.1657 -0.6,0 -0.1657,0.1656 -0.1657,0.4342 0,0.6 0.1658,0.1657 0.4344,0.1657 0.6,0z"/>
     <g>
      <path id="_195300552" class="fil0" d="M105.819 31.4189l-0.608 0.608 1.1221 1.1222c1.1191,0.6484 0.5209,2.3946 -0.9745,1.3191l-0.2753 0.3727c0.3739,1.2521 1.0827,2.0253 2.5285,1.7449 0.7141,-0.3152 0.6607,-1.2446 -0.1596,-2.7883 1.197,0.9484 0.2963,3.1885 3.5906,2.8452 0.3433,-3.2943 -1.8968,-2.3936 -2.8452,-3.5906 1.5437,0.8203 2.4731,0.8737 2.7883,0.1596 0.2804,-1.4458 -0.4928,-2.1546 -1.7449,-2.5285l-0.3727 0.2753c1.0755,1.4954 -0.6707,2.0936 -1.3191,0.9745l-1.1222 -1.1221 -0.608 0.608zm-2.8199 2.9536c-0.7705,0.7705 -1.1456,1.4794 -2.3434,1.2392 2.2435,2.2435 3.3081,-0.3091 2.4126,-1.2047l-0.0692 -0.0345zm5.7735 -5.7735c0.7705,-0.7705 1.4794,-1.1456 1.2392,-2.3434 2.2435,2.2435 -0.3091,3.3081 -1.2047,2.4126l-0.0345 -0.0692z"/>
      <polygon id="_195301648" class="fil0" points="103.175,29.9912 94.5767,21.3931 93.1503,18.7556 95.6568,20.0408 104.391,28.7752 104.261,28.9164 95.4404,20.096 95.3197,20.2219 104.138,29.0397 103.999,29.1788 94.4184,19.5985 94.0004,20.0206 103.579,29.5987 103.443,29.7343 94.5936,20.8852 94.4712,21.0095 103.319,29.8577 "/>
      <path id="_195302744" class="fil0" d="M102.714 23.3552c0.2433,0.9696 0.3803,1.3223 1.0256,2.0795 0.1141,-1.1915 -0.1723,-1.2262 -1.0256,-2.0795zm3.0376 -2.7271c-1.1285,0.0294 -1.9988,-0.2039 -2.8534,0.5557 1.1142,0.3128 1.7743,-0.1538 2.8534,-0.5557zm-12.6016 -1.8725l5.192 0.0001c1.3166,1.0708 2.5501,1.4385 4.0279,1.59 -0.2386,-2.5561 2.9086,-0.1764 5.0598,-1.5205 -0.3389,1.1455 -0.7968,2.0618 -1.4538,2.5945 -2.1811,1.7681 -4.8212,-0.8425 -6.8608,-1.1313 1.0752,0.6528 2.0887,1.6159 3.2258,1.9586 2.0892,0.4298 2.5774,2.3973 1.9694,5.4182 -0.916,-1.8415 -4.2508,-2.4444 -2.1889,-4.221 -0.4963,-0.9761 -1.8606,-1.4564 -2.7908,-2.1846 -1.4909,-0.1505 -2.859,-1.4797 -3.729,-1.009 -0.3356,0.6157 0.8627,0.6908 0.3169,1.2682 -0.5773,0.5459 -0.6524,-0.6524 -1.2681,-0.3168 -0.4707,0.87 0.8586,2.2381 1.009,3.729 0.7282,0.9303 1.2086,2.2945 2.1846,2.7908 1.7766,-2.0619 2.3795,1.2729 4.221,2.189 -3.0208,0.6079 -4.9884,0.1197 -5.4182,-1.9695 -0.3427,-1.1371 -1.3058,-2.1506 -1.9586,-3.2258 0.2888,2.0396 2.8994,4.6797 1.1313,6.8608 -0.5326,0.657 -1.449,1.115 -2.5945,1.4538 1.3441,-2.1512 -1.0356,-5.2984 1.5205,-5.0597 -0.1515,-1.4778 -0.5247,-2.7186 -1.5955,-4.0351l0 -5.1797zm4.605 9.5588c0.9696,0.2434 1.3223,0.3803 2.0795,1.0256 -1.1915,0.1142 -1.2262,-0.1723 -2.0795,-1.0256zm-2.7271 3.0377c0.0294,-1.1286 -0.2039,-1.9989 0.5557,-2.8535 0.3128,1.1142 -0.1538,1.7743 -0.5557,2.8535z"/>
     </g>
    </g>
    <g>
     <path id="_195303840" class="fil0" d="M77.3873 18.4444l0.3392 0c0.0768,-8.3155 6.8098,-15.0341 15.1235,-15.1181l0 -0.3392c-8.5062,0.0754 -15.3821,6.9521 -15.4627,15.4573zm-0.2547 0l-1.9819 0c0.0538,-9.7662 7.9377,-17.6227 17.6993,-17.6938l0 0.615c-0.0578,0.0188 -0.1069,0.0476 -0.1495,0.0903 -0.1658,0.1658 -0.1658,0.4344 -0.0002,0.6 0.0414,0.0414 0.0894,0.0727 0.1405,0.0933l0.0014 0.5831c-8.6415,0.0841 -15.6329,7.0688 -15.7096,15.7121zm13.0573 -16.801c-0.1658,0.1658 -0.1658,0.4344 -0.0002,0.6001 0.1658,0.1656 0.4344,0.1656 0.6001,0 0.1656,-0.1657 0.1658,-0.4343 0,-0.6001 -0.1657,-0.1656 -0.4343,-0.1656 -0.5999,0zm-2.4548 0.5578c-0.1658,0.1658 -0.1658,0.4345 -0.0002,0.6001 0.1658,0.1656 0.4344,0.1656 0.6001,0 0.1656,-0.1656 0.1658,-0.4343 0,-0.6001 -0.1657,-0.1656 -0.4343,-0.1656 -0.5999,0zm-2.3437 0.9198c-0.1656,0.1658 -0.1656,0.4345 0,0.6001 0.1657,0.1656 0.4345,0.1656 0.6001,0 0.1657,-0.1656 0.1657,-0.4343 0,-0.6001 -0.1658,-0.1656 -0.4344,-0.1656 -0.6001,0zm-2.1785 1.2623c-0.1656,0.1658 -0.1656,0.4344 0,0.6001 0.1657,0.1656 0.4345,0.1656 0.6001,0 0.1657,-0.1657 0.1657,-0.4343 0,-0.6001 -0.1658,-0.1657 -0.4344,-0.1657 -0.6001,0zm-1.9663 1.572c-0.1657,0.1656 -0.1657,0.4342 0,0.6 0.1656,0.1657 0.4344,0.1657 0.6001,0 0.1656,-0.1656 0.1656,-0.4342 0,-0.6 -0.1658,-0.1657 -0.4345,-0.1657 -0.6001,0zm-1.7118 1.8457c-0.1657,0.1656 -0.1657,0.4342 0,0.6 0.1656,0.1657 0.4344,0.1657 0.6,0 0.1657,-0.1656 0.1657,-0.4342 0,-0.6 -0.1658,-0.1657 -0.4344,-0.1657 -0.6,0zm-1.4195 2.0785c-0.1656,0.1656 -0.1656,0.4343 0,0.6001 0.1657,0.1656 0.4345,0.1656 0.6001,0 0.1657,-0.1656 0.1657,-0.4343 0,-0.6001 -0.1658,-0.1656 -0.4344,-0.1656 -0.6001,0zm-1.0935 2.2671c-0.1658,0.1656 -0.1658,0.4343 -0.0002,0.6001 0.1658,0.1656 0.4344,0.1656 0.6001,0 0.1656,-0.1657 0.1658,-0.4343 0,-0.6001 -0.1657,-0.1656 -0.4343,-0.1656 -0.5999,0zm-0.7413 2.4052c-0.1658,0.1657 -0.1658,0.4343 -0.0002,0.6001 0.1658,0.1656 0.4345,0.1656 0.6001,0 0.1656,-0.1656 0.1658,-0.4343 0,-0.6001 -0.1656,-0.1656 -0.4343,-0.1656 -0.5999,0zm-0.3723 2.4893c-0.1657,0.1656 -0.1657,0.4342 0,0.6 0.1656,0.1657 0.4344,0.1657 0.6,0 0.1657,-0.1656 0.1657,-0.4342 0,-0.6 -0.1658,-0.1657 -0.4344,-0.1657 -0.6,0z"/>
     <g>
      <path id="_195307128" class="fil0" d="M80.1813 5.7811l0.608 -0.608 -1.1221 -1.1222c-1.1191,-0.6484 -0.5209,-2.3946 0.9745,-1.3191l0.2753 -0.3727c-0.3739,-1.2521 -1.0827,-2.0253 -2.5285,-1.7449 -0.7141,0.3152 -0.6607,1.2446 0.1596,2.7883 -1.197,-0.9484 -0.2963,-3.1885 -3.5906,-2.8452 -0.3433,3.2943 1.8968,2.3936 2.8452,3.5906 -1.5437,-0.8203 -2.4731,-0.8737 -2.7883,-0.1596 -0.2804,1.4458 0.4928,2.1546 1.7449,2.5285l0.3727 -0.2753c-1.0755,-1.4954 0.6707,-2.0936 1.3191,-0.9745l1.1222 1.1221 0.608 -0.608zm2.8199 -2.9536c0.7705,-0.7705 1.1456,-1.4794 2.3434,-1.2392 -2.2435,-2.2435 -3.3081,0.3091 -2.4126,1.2047l0.0692 0.0345zm-5.7735 5.7735c-0.7705,0.7705 -1.4794,1.1456 -1.2392,2.3434 -2.2435,-2.2435 0.3091,-3.3081 1.2047,-2.4126l0.0345 0.0692z"/>
      <polygon id="_195308224" class="fil0" points="82.8251,7.2088 91.4233,15.8069 92.8497,18.4444 90.3432,17.1592 81.609,8.4248 81.7391,8.2836 90.5596,17.104 90.6803,16.9781 81.8625,8.1603 82.0015,8.0212 91.5816,17.6015 91.9996,17.1794 82.4214,7.6013 82.5572,7.4657 91.4064,16.3148 91.5288,16.1905 82.6807,7.3423 "/>
      <path id="_195309320" class="fil0" d="M83.2859 13.8448c-0.2433,-0.9696 -0.3803,-1.3223 -1.0256,-2.0795 -0.1141,1.1915 0.1723,1.2262 1.0256,2.0795zm-3.0376 2.7271c1.1285,-0.0294 1.9988,0.2039 2.8534,-0.5557 -1.1142,-0.3128 -1.7743,0.1538 -2.8534,0.5557zm12.6016 1.8725l-5.192 -0.0001c-1.3166,-1.0708 -2.5501,-1.4385 -4.0279,-1.59 0.2386,2.5561 -2.9086,0.1764 -5.0598,1.5205 0.3389,-1.1455 0.7968,-2.0618 1.4538,-2.5945 2.1811,-1.7681 4.8212,0.8425 6.8608,1.1313 -1.0752,-0.6528 -2.0887,-1.6159 -3.2258,-1.9586 -2.0892,-0.4298 -2.5774,-2.3973 -1.9694,-5.4182 0.916,1.8415 4.2508,2.4444 2.1889,4.221 0.4963,0.9761 1.8606,1.4564 2.7908,2.1846 1.4909,0.1505 2.859,1.4797 3.729,1.009 0.3356,-0.6157 -0.8627,-0.6908 -0.3169,-1.2682 0.5773,-0.5459 0.6524,0.6524 1.2681,0.3168 0.4707,-0.87 -0.8586,-2.2381 -1.009,-3.729 -0.7282,-0.9303 -1.2086,-2.2945 -2.1846,-2.7908 -1.7766,2.0619 -2.3795,-1.2729 -4.221,-2.189 3.0208,-0.6079 4.9884,-0.1197 5.4182,1.9695 0.3427,1.1371 1.3058,2.1506 1.9586,3.2258 -0.2888,-2.0396 -2.8994,-4.6797 -1.1313,-6.8608 0.5326,-0.657 1.449,-1.115 2.5945,-1.4538 -1.3441,2.1512 1.0356,5.2984 -1.5205,5.0597 0.1515,1.4778 0.5247,2.7186 1.5955,4.0351l0 5.1797zm-4.605 -9.5588c-0.9696,-0.2434 -1.3223,-0.3803 -2.0795,-1.0256 1.1915,-0.1142 1.2262,0.1723 2.0795,1.0256zm2.7271 -3.0377c-0.0294,1.1286 0.2039,1.9989 -0.5557,2.8535 -0.3128,-1.1142 0.1538,-1.7743 0.5557,-2.8535z"/>
     </g>
    </g>
    <g>
     <path id="_195310416" class="fil0" d="M77.3871 18.7558l0.3392 0c0.0768,8.3155 6.8098,15.0341 15.1235,15.1181l0 0.3392c-8.5062,-0.0754 -15.3821,-6.9521 -15.4627,-15.4573zm-0.2547 0l-1.9819 0c0.0538,9.7662 7.9377,17.6227 17.6993,17.6938l0 -0.615c-0.0578,-0.0188 -0.1069,-0.0476 -0.1495,-0.0903 -0.1658,-0.1658 -0.1658,-0.4344 -0.0002,-0.6 0.0414,-0.0414 0.0894,-0.0727 0.1405,-0.0933l0.0014 -0.5831c-8.6415,-0.0841 -15.6329,-7.0688 -15.7096,-15.7121zm13.0573 16.801c-0.1658,-0.1658 -0.1658,-0.4344 -0.0002,-0.6001 0.1658,-0.1656 0.4344,-0.1656 0.6001,0 0.1656,0.1657 0.1658,0.4343 0,0.6001 -0.1657,0.1656 -0.4343,0.1656 -0.5999,0zm-2.4548 -0.5578c-0.1658,-0.1658 -0.1658,-0.4345 -0.0002,-0.6001 0.1658,-0.1656 0.4344,-0.1656 0.6001,0 0.1656,0.1656 0.1658,0.4343 0,0.6001 -0.1657,0.1656 -0.4343,0.1656 -0.5999,0zm-2.3437 -0.9198c-0.1656,-0.1658 -0.1656,-0.4345 0,-0.6001 0.1657,-0.1656 0.4345,-0.1656 0.6001,0 0.1657,0.1656 0.1657,0.4343 0,0.6001 -0.1658,0.1656 -0.4344,0.1656 -0.6001,0zm-2.1785 -1.2623c-0.1656,-0.1658 -0.1656,-0.4344 0,-0.6001 0.1657,-0.1656 0.4345,-0.1656 0.6001,0 0.1657,0.1657 0.1657,0.4343 0,0.6001 -0.1658,0.1657 -0.4344,0.1657 -0.6001,0zm-1.9663 -1.572c-0.1657,-0.1656 -0.1657,-0.4342 0,-0.6 0.1656,-0.1657 0.4344,-0.1657 0.6001,0 0.1656,0.1656 0.1656,0.4342 0,0.6 -0.1658,0.1657 -0.4345,0.1657 -0.6001,0zm-1.7118 -1.8457c-0.1657,-0.1656 -0.1657,-0.4342 0,-0.6 0.1656,-0.1657 0.4344,-0.1657 0.6,0 0.1657,0.1656 0.1657,0.4342 0,0.6 -0.1658,0.1657 -0.4344,0.1657 -0.6,0zm-1.4195 -2.0785c-0.1656,-0.1656 -0.1656,-0.4343 0,-0.6001 0.1657,-0.1656 0.4345,-0.1656 0.6001,0 0.1657,0.1656 0.1657,0.4343 0,0.6001 -0.1658,0.1656 -0.4344,0.1656 -0.6001,0zm-1.0935 -2.2671c-0.1658,-0.1656 -0.1658,-0.4343 -0.0002,-0.6001 0.1658,-0.1656 0.4344,-0.1656 0.6001,0 0.1656,0.1657 0.1658,0.4343 0,0.6001 -0.1657,0.1656 -0.4343,0.1656 -0.5999,0zm-0.7413 -2.4052c-0.1658,-0.1657 -0.1658,-0.4343 -0.0002,-0.6001 0.1658,-0.1656 0.4345,-0.1656 0.6001,0 0.1656,0.1656 0.1658,0.4343 0,0.6001 -0.1656,0.1656 -0.4343,0.1656 -0.5999,0zm-0.3723 -2.4893c-0.1657,-0.1656 -0.1657,-0.4342 0,-0.6 0.1656,-0.1657 0.4344,-0.1657 0.6,0 0.1657,0.1656 0.1657,0.4342 0,0.6 -0.1658,0.1657 -0.4344,0.1657 -0.6,0z"/>
     <g>
      <path id="_195313584" class="fil0" d="M80.1811 31.4191l0.608 0.608 -1.1221 1.1222c-1.1191,0.6484 -0.5209,2.3946 0.9745,1.3191l0.2753 0.3727c-0.3739,1.2521 -1.0827,2.0253 -2.5285,1.7449 -0.7141,-0.3152 -0.6607,-1.2446 0.1596,-2.7883 -1.197,0.9484 -0.2963,3.1885 -3.5906,2.8452 -0.3433,-3.2943 1.8968,-2.3936 2.8452,-3.5906 -1.5437,0.8203 -2.4731,0.8737 -2.7883,0.1596 -0.2804,-1.4458 0.4928,-2.1546 1.7449,-2.5285l0.3727 0.2753c-1.0755,1.4954 0.6707,2.0936 1.3191,0.9745l1.1222 -1.1221 0.608 0.608zm2.8199 2.9536c0.7705,0.7705 1.1456,1.4794 2.3434,1.2392 -2.2435,2.2435 -3.3081,-0.3091 -2.4126,-1.2047l0.0692 -0.0345zm-5.7735 -5.7735c-0.7705,-0.7705 -1.4794,-1.1456 -1.2392,-2.3434 -2.2435,2.2435 0.3091,3.3081 1.2047,2.4126l0.0345 -0.0692z"/>
      <polygon id="_195323000" class="fil0" points="82.8249,29.9914 91.4231,21.3933 92.8495,18.7558 90.343,20.041 81.6088,28.7754 81.7389,28.9166 90.5594,20.0962 90.6801,20.2221 81.8623,29.0399 82.0013,29.179 91.5814,19.5987 91.9994,20.0208 82.4212,29.5989 82.557,29.7345 91.4062,20.8854 91.5286,21.0097 82.6805,29.8579 "/>
      <path id="_195324096" class="fil0" d="M83.2857 23.3554c-0.2433,0.9696 -0.3803,1.3223 -1.0256,2.0795 -0.1141,-1.1915 0.1723,-1.2262 1.0256,-2.0795zm-3.0376 -2.7271c1.1285,0.0294 1.9988,-0.2039 2.8534,0.5557 -1.1142,0.3128 -1.7743,-0.1538 -2.8534,-0.5557zm12.6016 -1.8725l-5.192 0.0001c-1.3166,1.0708 -2.5501,1.4385 -4.0279,1.59 0.2386,-2.5561 -2.9086,-0.1764 -5.0598,-1.5205 0.3389,1.1455 0.7968,2.0618 1.4538,2.5945 2.1811,1.7681 4.8212,-0.8425 6.8608,-1.1313 -1.0752,0.6528 -2.0887,1.6159 -3.2258,1.9586 -2.0892,0.4298 -2.5774,2.3973 -1.9694,5.4182 0.916,-1.8415 4.2508,-2.4444 2.1889,-4.221 0.4963,-0.9761 1.8606,-1.4564 2.7908,-2.1846 1.4909,-0.1505 2.859,-1.4797 3.729,-1.009 0.3356,0.6157 -0.8627,0.6908 -0.3169,1.2682 0.5773,0.5459 0.6524,-0.6524 1.2681,-0.3168 0.4707,0.87 -0.8586,2.2381 -1.009,3.729 -0.7282,0.9303 -1.2086,2.2945 -2.1846,2.7908 -1.7766,-2.0619 -2.3795,1.2729 -4.221,2.189 3.0208,0.6079 4.9884,0.1197 5.4182,-1.9695 0.3427,-1.1371 1.3058,-2.1506 1.9586,-3.2258 -0.2888,2.0396 -2.8994,4.6797 -1.1313,6.8608 0.5326,0.657 1.449,1.115 2.5945,1.4538 -1.3441,-2.1512 1.0356,-5.2984 -1.5205,-5.0597 0.1515,-1.4778 0.5247,-2.7186 1.5955,-4.0351l0 -5.1797zm-4.605 9.5588c-0.9696,0.2434 -1.3223,0.3803 -2.0795,1.0256 1.1915,0.1142 1.2262,-0.1723 2.0795,-1.0256zm2.7271 3.0377c-0.0294,-1.1286 0.2039,-1.9989 -0.5557,-2.8535 -0.3128,1.1142 0.1538,1.7743 0.5557,2.8535z"/>
     </g>
    </g>
   </g>
   <g>
    <g>
     <path id="_195490488" class="fil0" d="M34.2129 18.4446l-0.3392 0c-0.0768,-8.3155 -6.8098,-15.0341 -15.1235,-15.1181l0 -0.3392c8.5062,0.0754 15.3821,6.9521 15.4627,15.4573zm0.2547 0l1.9819 0c-0.0538,-9.7662 -7.9377,-17.6227 -17.6993,-17.6938l0 0.615c0.0578,0.0188 0.1069,0.0476 0.1495,0.0903 0.1658,0.1658 0.1658,0.4344 0.0002,0.6 -0.0414,0.0414 -0.0894,0.0727 -0.1405,0.0933l-0.0014 0.5831c8.6415,0.0841 15.6329,7.0688 15.7096,15.7121zm-13.0573 -16.801c0.1658,0.1658 0.1658,0.4344 0.0002,0.6001 -0.1658,0.1656 -0.4344,0.1656 -0.6001,0 -0.1656,-0.1657 -0.1658,-0.4343 0,-0.6001 0.1657,-0.1656 0.4343,-0.1656 0.5999,0zm2.4548 0.5578c0.1658,0.1658 0.1658,0.4345 0.0002,0.6001 -0.1658,0.1656 -0.4344,0.1656 -0.6001,0 -0.1656,-0.1656 -0.1658,-0.4343 0,-0.6001 0.1657,-0.1656 0.4343,-0.1656 0.5999,0zm2.3437 0.9198c0.1656,0.1658 0.1656,0.4345 0,0.6001 -0.1657,0.1656 -0.4345,0.1656 -0.6001,0 -0.1657,-0.1656 -0.1657,-0.4343 0,-0.6001 0.1658,-0.1656 0.4344,-0.1656 0.6001,0zm2.1785 1.2623c0.1656,0.1658 0.1656,0.4344 0,0.6001 -0.1657,0.1656 -0.4345,0.1656 -0.6001,0 -0.1657,-0.1657 -0.1657,-0.4343 0,-0.6001 0.1658,-0.1657 0.4344,-0.1657 0.6001,0zm1.9663 1.572c0.1657,0.1656 0.1657,0.4342 0,0.6 -0.1656,0.1657 -0.4344,0.1657 -0.6001,0 -0.1656,-0.1656 -0.1656,-0.4342 0,-0.6 0.1658,-0.1657 0.4345,-0.1657 0.6001,0zm1.7118 1.8457c0.1657,0.1656 0.1657,0.4342 0,0.6 -0.1656,0.1657 -0.4344,0.1657 -0.6,0 -0.1657,-0.1656 -0.1657,-0.4342 0,-0.6 0.1658,-0.1657 0.4344,-0.1657 0.6,0zm1.4195 2.0785c0.1656,0.1656 0.1656,0.4343 0,0.6001 -0.1657,0.1656 -0.4345,0.1656 -0.6001,0 -0.1657,-0.1656 -0.1657,-0.4343 0,-0.6001 0.1658,-0.1656 0.4344,-0.1656 0.6001,0zm1.0935 2.2671c0.1658,0.1656 0.1658,0.4343 0.0002,0.6001 -0.1658,0.1656 -0.4344,0.1656 -0.6001,0 -0.1656,-0.1657 -0.1658,-0.4343 0,-0.6001 0.1657,-0.1656 0.4343,-0.1656 0.5999,0zm0.7413 2.4052c0.1658,0.1657 0.1658,0.4343 0.0002,0.6001 -0.1658,0.1656 -0.4345,0.1656 -0.6001,0 -0.1656,-0.1656 -0.1658,-0.4343 0,-0.6001 0.1656,-0.1656 0.4343,-0.1656 0.5999,0zm0.3723 2.4893c0.1657,0.1656 0.1657,0.4342 0,0.6 -0.1656,0.1657 -0.4344,0.1657 -0.6,0 -0.1657,-0.1656 -0.1657,-0.4342 0,-0.6 0.1658,-0.1657 0.4344,-0.1657 0.6,0z"/>
     <g>
      <path id="_195265136" class="fil0" d="M31.4189 5.7813l-0.608 -0.608 1.1221 -1.1222c1.1191,-0.6484 0.5209,-2.3946 -0.9745,-1.3191l-0.2753 -0.3727c0.3739,-1.2521 1.0827,-2.0253 2.5285,-1.7449 0.7141,0.3152 0.6607,1.2446 -0.1596,2.7883 1.197,-0.9484 0.2963,-3.1885 3.5906,-2.8452 0.3433,3.2943 -1.8968,2.3936 -2.8452,3.5906 1.5437,-0.8203 2.4731,-0.8737 2.7883,-0.1596 0.2804,1.4458 -0.4928,2.1546 -1.7449,2.5285l-0.3727 -0.2753c1.0755,-1.4954 -0.6707,-2.0936 -1.3191,-0.9745l-1.1222 1.1221 -0.608 -0.608zm-2.8199 -2.9536c-0.7705,-0.7705 -1.1456,-1.4794 -2.3434,-1.2392 2.2435,-2.2435 3.3081,0.3091 2.4126,1.2047l-0.0692 0.0345zm5.7735 5.7735c0.7705,0.7705 1.4794,1.1456 1.2392,2.3434 2.2435,-2.2435 -0.3091,-3.3081 -1.2047,-2.4126l-0.0345 0.0692z"/>
      <polygon id="_195306032" class="fil0" points="28.7751,7.209 20.1769,15.8071 18.7505,18.4446 21.257,17.1594 29.9912,8.425 29.8611,8.2838 21.0406,17.1042 20.9199,16.9783 29.7377,8.1605 29.5987,8.0214 20.0186,17.6017 19.6006,17.1796 29.1788,7.6015 29.043,7.4659 20.1938,16.315 20.0714,16.1907 28.9195,7.3425 "/>
      <path id="_195312608" class="fil0" d="M28.3143 13.845c0.2433,-0.9696 0.3803,-1.3223 1.0256,-2.0795 0.1141,1.1915 -0.1723,1.2262 -1.0256,2.0795zm3.0376 2.7271c-1.1285,-0.0294 -1.9988,0.2039 -2.8534,-0.5557 1.1142,-0.3128 1.7743,0.1538 2.8534,0.5557zm-12.6016 1.8725l5.192 -0.0001c1.3166,-1.0708 2.5501,-1.4385 4.0279,-1.59 -0.2386,2.5561 2.9086,0.1764 5.0598,1.5205 -0.3389,-1.1455 -0.7968,-2.0618 -1.4538,-2.5945 -2.1811,-1.7681 -4.8212,0.8425 -6.8608,1.1313 1.0752,-0.6528 2.0887,-1.6159 3.2258,-1.9586 2.0892,-0.4298 2.5774,-2.3973 1.9694,-5.4182 -0.916,1.8415 -4.2508,2.4444 -2.1889,4.221 -0.4963,0.9761 -1.8606,1.4564 -2.7908,2.1846 -1.4909,0.1505 -2.859,1.4797 -3.729,1.009 -0.3356,-0.6157 0.8627,-0.6908 0.3169,-1.2682 -0.5773,-0.5459 -0.6524,0.6524 -1.2681,0.3168 -0.4707,-0.87 0.8586,-2.2381 1.009,-3.729 0.7282,-0.9303 1.2086,-2.2945 2.1846,-2.7908 1.7766,2.0619 2.3795,-1.2729 4.221,-2.189 -3.0208,-0.6079 -4.9884,-0.1197 -5.4182,1.9695 -0.3427,1.1371 -1.3058,2.1506 -1.9586,3.2258 0.2888,-2.0396 2.8994,-4.6797 1.1313,-6.8608 -0.5326,-0.657 -1.449,-1.115 -2.5945,-1.4538 1.3441,2.1512 -1.0356,5.2984 1.5205,5.0597 -0.1515,1.4778 -0.5247,2.7186 -1.5955,4.0351l0 5.1797zm4.605 -9.5588c0.9696,-0.2434 1.3223,-0.3803 2.0795,-1.0256 -1.1915,-0.1142 -1.2262,0.1723 -2.0795,1.0256zm-2.7271 -3.0377c0.0294,1.1286 -0.2039,1.9989 0.5557,2.8535 0.3128,-1.1142 -0.1538,-1.7743 -0.5557,-2.8535z"/>
     </g>
    </g>
    <g>
     <path id="_195325192" class="fil0" d="M34.2127 18.7556l-0.3392 0c-0.0768,8.3155 -6.8098,15.0341 -15.1235,15.1181l0 0.3392c8.5062,-0.0754 15.3821,-6.9521 15.4627,-15.4573zm0.2547 0l1.9819 0c-0.0538,9.7662 -7.9377,17.6227 -17.6993,17.6938l0 -0.615c0.0578,-0.0188 0.1069,-0.0476 0.1495,-0.0903 0.1658,-0.1658 0.1658,-0.4344 0.0002,-0.6 -0.0414,-0.0414 -0.0894,-0.0727 -0.1405,-0.0933l-0.0014 -0.5831c8.6415,-0.0841 15.6329,-7.0688 15.7096,-15.7121zm-13.0573 16.801c0.1658,-0.1658 0.1658,-0.4344 0.0002,-0.6001 -0.1658,-0.1656 -0.4344,-0.1656 -0.6001,0 -0.1656,0.1657 -0.1658,0.4343 0,0.6001 0.1657,0.1656 0.4343,0.1656 0.5999,0zm2.4548 -0.5578c0.1658,-0.1658 0.1658,-0.4345 0.0002,-0.6001 -0.1658,-0.1656 -0.4344,-0.1656 -0.6001,0 -0.1656,0.1656 -0.1658,0.4343 0,0.6001 0.1657,0.1656 0.4343,0.1656 0.5999,0zm2.3437 -0.9198c0.1656,-0.1658 0.1656,-0.4345 0,-0.6001 -0.1657,-0.1656 -0.4345,-0.1656 -0.6001,0 -0.1657,0.1656 -0.1657,0.4343 0,0.6001 0.1658,0.1656 0.4344,0.1656 0.6001,0zm2.1785 -1.2623c0.1656,-0.1658 0.1656,-0.4344 0,-0.6001 -0.1657,-0.1656 -0.4345,-0.1656 -0.6001,0 -0.1657,0.1657 -0.1657,0.4343 0,0.6001 0.1658,0.1657 0.4344,0.1657 0.6001,0zm1.9663 -1.572c0.1657,-0.1656 0.1657,-0.4342 0,-0.6 -0.1656,-0.1657 -0.4344,-0.1657 -0.6001,0 -0.1656,0.1656 -0.1656,0.4342 0,0.6 0.1658,0.1657 0.4345,0.1657 0.6001,0zm1.7118 -1.8457c0.1657,-0.1656 0.1657,-0.4342 0,-0.6 -0.1656,-0.1657 -0.4344,-0.1657 -0.6,0 -0.1657,0.1656 -0.1657,0.4342 0,0.6 0.1658,0.1657 0.4344,0.1657 0.6,0zm1.4195 -2.0785c0.1656,-0.1656 0.1656,-0.4343 0,-0.6001 -0.1657,-0.1656 -0.4345,-0.1656 -0.6001,0 -0.1657,0.1656 -0.1657,0.4343 0,0.6001 0.1658,0.1656 0.4344,0.1656 0.6001,0zm1.0935 -2.2671c0.1658,-0.1656 0.1658,-0.4343 0.0002,-0.6001 -0.1658,-0.1656 -0.4344,-0.1656 -0.6001,0 -0.1656,0.1657 -0.1658,0.4343 0,0.6001 0.1657,0.1656 0.4343,0.1656 0.5999,0zm0.7413 -2.4052c0.1658,-0.1657 0.1658,-0.4343 0.0002,-0.6001 -0.1658,-0.1656 -0.4345,-0.1656 -0.6001,0 -0.1656,0.1656 -0.1658,0.4343 0,0.6001 0.1656,0.1656 0.4343,0.1656 0.5999,0zm0.3723 -2.4893c0.1657,-0.1656 0.1657,-0.4342 0,-0.6 -0.1656,-0.1657 -0.4344,-0.1657 -0.6,0 -0.1657,0.1656 -0.1657,0.4342 0,0.6 0.1658,0.1657 0.4344,0.1657 0.6,0z"/>
     <g>
      <path id="_195328480" class="fil0" d="M31.4187 31.4189l-0.608 0.608 1.1221 1.1222c1.1191,0.6484 0.5209,2.3946 -0.9745,1.3191l-0.2753 0.3727c0.3739,1.2521 1.0827,2.0253 2.5285,1.7449 0.7141,-0.3152 0.6607,-1.2446 -0.1596,-2.7883 1.197,0.9484 0.2963,3.1885 3.5906,2.8452 0.3433,-3.2943 -1.8968,-2.3936 -2.8452,-3.5906 1.5437,0.8203 2.4731,0.8737 2.7883,0.1596 0.2804,-1.4458 -0.4928,-2.1546 -1.7449,-2.5285l-0.3727 0.2753c1.0755,1.4954 -0.6707,2.0936 -1.3191,0.9745l-1.1222 -1.1221 -0.608 0.608zm-2.8199 2.9536c-0.7705,0.7705 -1.1456,1.4794 -2.3434,1.2392 2.2435,2.2435 3.3081,-0.3091 2.4126,-1.2047l-0.0692 -0.0345zm5.7735 -5.7735c0.7705,-0.7705 1.4794,-1.1456 1.2392,-2.3434 2.2435,2.2435 -0.3091,3.3081 -1.2047,2.4126l-0.0345 -0.0692z"/>
      <polygon id="_195329576" class="fil0" points="28.7749,29.9912 20.1767,21.3931 18.7503,18.7556 21.2568,20.0408 29.991,28.7752 29.8609,28.9164 21.0404,20.096 20.9197,20.2219 29.7375,29.0397 29.5985,29.1788 20.0184,19.5985 19.6004,20.0206 29.1786,29.5987 29.0428,29.7343 20.1936,20.8852 20.0712,21.0095 28.9193,29.8577 "/>
      <path id="_195330672" class="fil0" d="M28.3141 23.3552c0.2433,0.9696 0.3803,1.3223 1.0256,2.0795 0.1141,-1.1915 -0.1723,-1.2262 -1.0256,-2.0795zm3.0376 -2.7271c-1.1285,0.0294 -1.9988,-0.2039 -2.8534,0.5557 1.1142,0.3128 1.7743,-0.1538 2.8534,-0.5557zm-12.6016 -1.8725l5.192 0.0001c1.3166,1.0708 2.5501,1.4385 4.0279,1.59 -0.2386,-2.5561 2.9086,-0.1764 5.0598,-1.5205 -0.3389,1.1455 -0.7968,2.0618 -1.4538,2.5945 -2.1811,1.7681 -4.8212,-0.8425 -6.8608,-1.1313 1.0752,0.6528 2.0887,1.6159 3.2258,1.9586 2.0892,0.4298 2.5774,2.3973 1.9694,5.4182 -0.916,-1.8415 -4.2508,-2.4444 -2.1889,-4.221 -0.4963,-0.9761 -1.8606,-1.4564 -2.7908,-2.1846 -1.4909,-0.1505 -2.859,-1.4797 -3.729,-1.009 -0.3356,0.6157 0.8627,0.6908 0.3169,1.2682 -0.5773,0.5459 -0.6524,-0.6524 -1.2681,-0.3168 -0.4707,0.87 0.8586,2.2381 1.009,3.729 0.7282,0.9303 1.2086,2.2945 2.1846,2.7908 1.7766,-2.0619 2.3795,1.2729 4.221,2.189 -3.0208,0.6079 -4.9884,0.1197 -5.4182,-1.9695 -0.3427,-1.1371 -1.3058,-2.1506 -1.9586,-3.2258 0.2888,2.0396 2.8994,4.6797 1.1313,6.8608 -0.5326,0.657 -1.449,1.115 -2.5945,1.4538 1.3441,-2.1512 -1.0356,-5.2984 1.5205,-5.0597 -0.1515,-1.4778 -0.5247,-2.7186 -1.5955,-4.0351l0 -5.1797zm4.605 9.5588c0.9696,0.2434 1.3223,0.3803 2.0795,1.0256 -1.1915,0.1142 -1.2262,-0.1723 -2.0795,-1.0256zm-2.7271 3.0377c0.0294,-1.1286 -0.2039,-1.9989 0.5557,-2.8535 0.3128,1.1142 -0.1538,1.7743 -0.5557,2.8535z"/>
     </g>
    </g>
    <g>
     <path id="_195331768" class="fil0" d="M2.9873 18.4444l0.3392 0c0.0768,-8.3155 6.8098,-15.0341 15.1235,-15.1181l0 -0.3392c-8.5062,0.0754 -15.3821,6.9521 -15.4627,15.4573zm-0.2547 0l-1.9819 0c0.0538,-9.7662 7.9377,-17.6227 17.6993,-17.6938l0 0.615c-0.0578,0.0188 -0.1069,0.0476 -0.1495,0.0903 -0.1658,0.1658 -0.1658,0.4344 -0.0002,0.6 0.0414,0.0414 0.0894,0.0727 0.1405,0.0933l0.0014 0.5831c-8.6415,0.0841 -15.6329,7.0688 -15.7096,15.7121zm13.0573 -16.801c-0.1658,0.1658 -0.1658,0.4344 -0.0002,0.6001 0.1658,0.1656 0.4344,0.1656 0.6001,0 0.1656,-0.1657 0.1658,-0.4343 0,-0.6001 -0.1657,-0.1656 -0.4343,-0.1656 -0.5999,0zm-2.4548 0.5578c-0.1658,0.1658 -0.1658,0.4345 -0.0002,0.6001 0.1658,0.1656 0.4344,0.1656 0.6001,0 0.1656,-0.1656 0.1658,-0.4343 0,-0.6001 -0.1657,-0.1656 -0.4343,-0.1656 -0.5999,0zm-2.3437 0.9198c-0.1656,0.1658 -0.1656,0.4345 0,0.6001 0.1657,0.1656 0.4345,0.1656 0.6001,0 0.1657,-0.1656 0.1657,-0.4343 0,-0.6001 -0.1658,-0.1656 -0.4344,-0.1656 -0.6001,0zm-2.1785 1.2623c-0.1656,0.1658 -0.1656,0.4344 0,0.6001 0.1657,0.1656 0.4345,0.1656 0.6001,0 0.1657,-0.1657 0.1657,-0.4343 0,-0.6001 -0.1658,-0.1657 -0.4344,-0.1657 -0.6001,0zm-1.9663 1.572c-0.1657,0.1656 -0.1657,0.4342 0,0.6 0.1656,0.1657 0.4344,0.1657 0.6001,0 0.1656,-0.1656 0.1656,-0.4342 0,-0.6 -0.1658,-0.1657 -0.4345,-0.1657 -0.6001,0zm-1.7118 1.8457c-0.1657,0.1656 -0.1657,0.4342 0,0.6 0.1656,0.1657 0.4344,0.1657 0.6,0 0.1657,-0.1656 0.1657,-0.4342 0,-0.6 -0.1658,-0.1657 -0.4344,-0.1657 -0.6,0zm-1.4195 2.0785c-0.1656,0.1656 -0.1656,0.4343 0,0.6001 0.1657,0.1656 0.4345,0.1656 0.6001,0 0.1657,-0.1656 0.1657,-0.4343 0,-0.6001 -0.1658,-0.1656 -0.4344,-0.1656 -0.6001,0zm-1.0935 2.2671c-0.1658,0.1656 -0.1658,0.4343 -0.0002,0.6001 0.1658,0.1656 0.4344,0.1656 0.6001,0 0.1656,-0.1657 0.1658,-0.4343 0,-0.6001 -0.1657,-0.1656 -0.4343,-0.1656 -0.5999,0zm-0.7413 2.4052c-0.1658,0.1657 -0.1658,0.4343 -0.0002,0.6001 0.1658,0.1656 0.4345,0.1656 0.6001,0 0.1656,-0.1656 0.1658,-0.4343 0,-0.6001 -0.1656,-0.1656 -0.4343,-0.1656 -0.5999,0zm-0.3723 2.4893c-0.1657,0.1656 -0.1657,0.4342 0,0.6 0.1656,0.1657 0.4344,0.1657 0.6,0 0.1657,-0.1656 0.1657,-0.4342 0,-0.6 -0.1658,-0.1657 -0.4344,-0.1657 -0.6,0z"/>
     <g>
      <path id="_195246968" class="fil0" d="M5.7813 5.7811l0.608 -0.608 -1.1221 -1.1222c-1.1191,-0.6484 -0.5209,-2.3946 0.9745,-1.3191l0.2753 -0.3727c-0.3739,-1.2521 -1.0827,-2.0253 -2.5285,-1.7449 -0.7141,0.3152 -0.6607,1.2446 0.1596,2.7883 -1.197,-0.9484 -0.2963,-3.1885 -3.5906,-2.8452 -0.3433,3.2943 1.8968,2.3936 2.8452,3.5906 -1.5437,-0.8203 -2.4731,-0.8737 -2.7883,-0.1596 -0.2804,1.4458 0.4928,2.1546 1.7449,2.5285l0.3727 -0.2753c-1.0755,-1.4954 0.6707,-2.0936 1.3191,-0.9745l1.1222 1.1221 0.608 -0.608zm2.8199 -2.9536c0.7705,-0.7705 1.1456,-1.4794 2.3434,-1.2392 -2.2435,-2.2435 -3.3081,0.3091 -2.4126,1.2047l0.0692 0.0345zm-5.7735 5.7735c-0.7705,0.7705 -1.4794,1.1456 -1.2392,2.3434 -2.2435,-2.2435 0.3091,-3.3081 1.2047,-2.4126l0.0345 0.0692z"/>
      <polygon id="_145512608" class="fil0" points="8.4251,7.2088 17.0233,15.8069 18.4497,18.4444 15.9432,17.1592 7.209,8.4248 7.3391,8.2836 16.1596,17.104 16.2803,16.9781 7.4625,8.1603 7.6015,8.0212 17.1816,17.6015 17.5996,17.1794 8.0214,7.6013 8.1572,7.4657 17.0064,16.3148 17.1288,16.1905 8.2807,7.3423 "/>
      <path id="_146233400" class="fil0" d="M8.8859 13.8448c-0.2433,-0.9696 -0.3803,-1.3223 -1.0256,-2.0795 -0.1141,1.1915 0.1723,1.2262 1.0256,2.0795zm-3.0376 2.7271c1.1285,-0.0294 1.9988,0.2039 2.8534,-0.5557 -1.1142,-0.3128 -1.7743,0.1538 -2.8534,0.5557zm12.6016 1.8725l-5.192 -0.0001c-1.3166,-1.0708 -2.5501,-1.4385 -4.0279,-1.59 0.2386,2.5561 -2.9086,0.1764 -5.0598,1.5205 0.3389,-1.1455 0.7968,-2.0618 1.4538,-2.5945 2.1811,-1.7681 4.8212,0.8425 6.8608,1.1313 -1.0752,-0.6528 -2.0887,-1.6159 -3.2258,-1.9586 -2.0892,-0.4298 -2.5774,-2.3973 -1.9694,-5.4182 0.916,1.8415 4.2508,2.4444 2.1889,4.221 0.4963,0.9761 1.8606,1.4564 2.7908,2.1846 1.4909,0.1505 2.859,1.4797 3.729,1.009 0.3356,-0.6157 -0.8627,-0.6908 -0.3169,-1.2682 0.5773,-0.5459 0.6524,0.6524 1.2681,0.3168 0.4707,-0.87 -0.8586,-2.2381 -1.009,-3.729 -0.7282,-0.9303 -1.2086,-2.2945 -2.1846,-2.7908 -1.7766,2.0619 -2.3795,-1.2729 -4.221,-2.189 3.0208,-0.6079 4.9884,-0.1197 5.4182,1.9695 0.3427,1.1371 1.3058,2.1506 1.9586,3.2258 -0.2888,-2.0396 -2.8994,-4.6797 -1.1313,-6.8608 0.5326,-0.657 1.449,-1.115 2.5945,-1.4538 -1.3441,2.1512 1.0356,5.2984 -1.5205,5.0597 0.1515,1.4778 0.5247,2.7186 1.5955,4.0351l0 5.1797zm-4.605 -9.5588c-0.9696,-0.2434 -1.3223,-0.3803 -2.0795,-1.0256 1.1915,-0.1142 1.2262,0.1723 2.0795,1.0256zm2.7271 -3.0377c-0.0294,1.1286 0.2039,1.9989 -0.5557,2.8535 -0.3128,-1.1142 0.1538,-1.7743 0.5557,-2.8535z"/>
     </g>
    </g>
    <g>
     <path id="_195336856" class="fil0" d="M2.9871 18.7558l0.3392 0c0.0768,8.3155 6.8098,15.0341 15.1235,15.1181l0 0.3392c-8.5062,-0.0754 -15.3821,-6.9521 -15.4627,-15.4573zm-0.2547 0l-1.9819 0c0.0538,9.7662 7.9377,17.6227 17.6993,17.6938l0 -0.615c-0.0578,-0.0188 -0.1069,-0.0476 -0.1495,-0.0903 -0.1658,-0.1658 -0.1658,-0.4344 -0.0002,-0.6 0.0414,-0.0414 0.0894,-0.0727 0.1405,-0.0933l0.0014 -0.5831c-8.6415,-0.0841 -15.6329,-7.0688 -15.7096,-15.7121zm13.0573 16.801c-0.1658,-0.1658 -0.1658,-0.4344 -0.0002,-0.6001 0.1658,-0.1656 0.4344,-0.1656 0.6001,0 0.1656,0.1657 0.1658,0.4343 0,0.6001 -0.1657,0.1656 -0.4343,0.1656 -0.5999,0zm-2.4548 -0.5578c-0.1658,-0.1658 -0.1658,-0.4345 -0.0002,-0.6001 0.1658,-0.1656 0.4344,-0.1656 0.6001,0 0.1656,0.1656 0.1658,0.4343 0,0.6001 -0.1657,0.1656 -0.4343,0.1656 -0.5999,0zm-2.3437 -0.9198c-0.1656,-0.1658 -0.1656,-0.4345 0,-0.6001 0.1657,-0.1656 0.4345,-0.1656 0.6001,0 0.1657,0.1656 0.1657,0.4343 0,0.6001 -0.1658,0.1656 -0.4344,0.1656 -0.6001,0zm-2.1785 -1.2623c-0.1656,-0.1658 -0.1656,-0.4344 0,-0.6001 0.1657,-0.1656 0.4345,-0.1656 0.6001,0 0.1657,0.1657 0.1657,0.4343 0,0.6001 -0.1658,0.1657 -0.4344,0.1657 -0.6001,0zm-1.9663 -1.572c-0.1657,-0.1656 -0.1657,-0.4342 0,-0.6 0.1656,-0.1657 0.4344,-0.1657 0.6001,0 0.1656,0.1656 0.1656,0.4342 0,0.6 -0.1658,0.1657 -0.4345,0.1657 -0.6001,0zm-1.7118 -1.8457c-0.1657,-0.1656 -0.1657,-0.4342 0,-0.6 0.1656,-0.1657 0.4344,-0.1657 0.6,0 0.1657,0.1656 0.1657,0.4342 0,0.6 -0.1658,0.1657 -0.4344,0.1657 -0.6,0zm-1.4195 -2.0785c-0.1656,-0.1656 -0.1656,-0.4343 0,-0.6001 0.1657,-0.1656 0.4345,-0.1656 0.6001,0 0.1657,0.1656 0.1657,0.4343 0,0.6001 -0.1658,0.1656 -0.4344,0.1656 -0.6001,0zm-1.0935 -2.2671c-0.1658,-0.1656 -0.1658,-0.4343 -0.0002,-0.6001 0.1658,-0.1656 0.4344,-0.1656 0.6001,0 0.1656,0.1657 0.1658,0.4343 0,0.6001 -0.1657,0.1656 -0.4343,0.1656 -0.5999,0zm-0.7413 -2.4052c-0.1658,-0.1657 -0.1658,-0.4343 -0.0002,-0.6001 0.1658,-0.1656 0.4345,-0.1656 0.6001,0 0.1656,0.1656 0.1658,0.4343 0,0.6001 -0.1656,0.1656 -0.4343,0.1656 -0.5999,0zm-0.3723 -2.4893c-0.1657,-0.1656 -0.1657,-0.4342 0,-0.6 0.1656,-0.1657 0.4344,-0.1657 0.6,0 0.1657,0.1656 0.1657,0.4342 0,0.6 -0.1658,0.1657 -0.4344,0.1657 -0.6,0z"/>
     <g>
      <path id="_195279056" class="fil0" d="M5.7811 31.4191l0.608 0.608 -1.1221 1.1222c-1.1191,0.6484 -0.5209,2.3946 0.9745,1.3191l0.2753 0.3727c-0.3739,1.2521 -1.0827,2.0253 -2.5285,1.7449 -0.7141,-0.3152 -0.6607,-1.2446 0.1596,-2.7883 -1.197,0.9484 -0.2963,3.1885 -3.5906,2.8452 -0.3433,-3.2943 1.8968,-2.3936 2.8452,-3.5906 -1.5437,0.8203 -2.4731,0.8737 -2.7883,0.1596 -0.2804,-1.4458 0.4928,-2.1546 1.7449,-2.5285l0.3727 0.2753c-1.0755,1.4954 0.6707,2.0936 1.3191,0.9745l1.1222 -1.1221 0.608 0.608zm2.8199 2.9536c0.7705,0.7705 1.1456,1.4794 2.3434,1.2392 -2.2435,2.2435 -3.3081,-0.3091 -2.4126,-1.2047l0.0692 -0.0345zm-5.7735 -5.7735c-0.7705,-0.7705 -1.4794,-1.1456 -1.2392,-2.3434 -2.2435,2.2435 0.3091,3.3081 1.2047,2.4126l0.0345 -0.0692z"/>
      <polygon id="_195349312" class="fil0" points="8.4249,29.9914 17.0231,21.3933 18.4495,18.7558 15.943,20.041 7.2088,28.7754 7.3389,28.9166 16.1594,20.0962 16.2801,20.2221 7.4623,29.0399 7.6013,29.179 17.1814,19.5987 17.5994,20.0208 8.0212,29.5989 8.157,29.7345 17.0062,20.8854 17.1286,21.0097 8.2805,29.8579 "/>
      <path id="_195349456" class="fil0" d="M8.8857 23.3554c-0.2433,0.9696 -0.3803,1.3223 -1.0256,2.0795 -0.1141,-1.1915 0.1723,-1.2262 1.0256,-2.0795zm-3.0376 -2.7271c1.1285,0.0294 1.9988,-0.2039 2.8534,0.5557 -1.1142,0.3128 -1.7743,-0.1538 -2.8534,-0.5557zm12.6016 -1.8725l-5.192 0.0001c-1.3166,1.0708 -2.5501,1.4385 -4.0279,1.59 0.2386,-2.5561 -2.9086,-0.1764 -5.0598,-1.5205 0.3389,1.1455 0.7968,2.0618 1.4538,2.5945 2.1811,1.7681 4.8212,-0.8425 6.8608,-1.1313 -1.0752,0.6528 -2.0887,1.6159 -3.2258,1.9586 -2.0892,0.4298 -2.5774,2.3973 -1.9694,5.4182 0.916,-1.8415 4.2508,-2.4444 2.1889,-4.221 0.4963,-0.9761 1.8606,-1.4564 2.7908,-2.1846 1.4909,-0.1505 2.859,-1.4797 3.729,-1.009 0.3356,0.6157 -0.8627,0.6908 -0.3169,1.2682 0.5773,0.5459 0.6524,-0.6524 1.2681,-0.3168 0.4707,0.87 -0.8586,2.2381 -1.009,3.729 -0.7282,0.9303 -1.2086,2.2945 -2.1846,2.7908 -1.7766,-2.0619 -2.3795,1.2729 -4.221,2.189 3.0208,0.6079 4.9884,0.1197 5.4182,-1.9695 0.3427,-1.1371 1.3058,-2.1506 1.9586,-3.2258 -0.2888,2.0396 -2.8994,4.6797 -1.1313,6.8608 0.5326,0.657 1.449,1.115 2.5945,1.4538 -1.3441,-2.1512 1.0356,-5.2984 -1.5205,-5.0597 0.1515,-1.4778 0.5247,-2.7186 1.5955,-4.0351l0 -5.1797zm-4.605 9.5588c-0.9696,0.2434 -1.3223,0.3803 -2.0795,1.0256 1.1915,0.1142 1.2262,-0.1723 2.0795,-1.0256zm2.7271 3.0377c-0.0294,-1.1286 0.2039,-1.9989 -0.5557,-2.8535 -0.3128,1.1142 0.1538,1.7743 0.5557,2.8535z"/>
     </g>
    </g>
   </g>
   <g>
    <g>
     <polygon id="_195412016" class="fil0" points="130.35,3.9494 144.845,18.4446 143.132,18.4446 130.35,5.663 "/>
     <path id="_195413000" class="fil0" d="M143.125 5.8872l0.4036 0.4036 1.1221 -1.122c0.8504,0.8893 1.7103,0.7936 1.7251,-0.0404 -0.411,-0.9426 -0.1182,-1.0366 0.6795,-0.4867 0.8587,0.0381 1.2421,-0.6391 0.3181,-1.7979 -0.0651,-0.2827 0.6143,0.042 0.8143,-0.5277 0.2471,-0.3851 0.2859,-0.9488 0.1611,-1.6526 -0.7038,-0.1248 -1.2676,-0.086 -1.6527,0.161 -0.5697,0.2001 -0.245,0.8795 -0.5276,0.8144 -1.1588,-0.9241 -1.836,-0.5406 -1.7979,0.318 0.5498,0.7978 0.4559,1.0906 -0.4868,0.6795 -0.8339,0.0149 -0.9297,0.8747 -0.0404,1.7252l-1.122 1.122 0.4036 0.4036zm-6.3676 -5.4221l3.5748 0.0001c0.8653,0 1.4311,0.57 1.8305,1.3066 0.1824,0.6336 -0.043,1.7376 -0.4151,2.8926l-0.7447 -0.5454c0.3421,-1.1702 0.3812,-2.0212 -0.0392,-2.2942 -0.0568,-0.0346 -0.1115,-0.0571 -0.1627,-0.0642 -0.7237,0.891 -1.2879,0.6051 -1.3733,-0.3173l-0.1125 -0.0354c-1.3963,0.1236 -2.4096,-0.347 -2.5578,-0.9428zm2.6028 9.7572c3.512,-1.9197 7.0395,-3.2923 7.6528,-2.3483 0.0346,0.0568 0.057,0.1115 0.0641,0.1628 -0.8909,0.7237 -0.6051,1.2878 0.3173,1.3732l0.0355 0.1126c-0.1237,1.3963 0.3469,2.4095 0.9427,2.5577l0 -3.5748c-0.0001,-0.8653 -0.5701,-1.431 -1.3066,-1.8304 -1.502,-0.4325 -5.6472,1.4259 -6.8472,2.1011l-0.1722 0.0141 0.015 -0.1714c0.253,-0.4499 0.6728,-1.3141 1.0755,-2.2977l-0.7121 -0.5828c-0.4701,1.1511 -1.1029,2.4463 -1.8095,3.7392 0.298,-1.0041 0.3017,-2.0079 -0.4631,-2.7728l-3.6949 -3.6949c-0.3957,0.6576 -0.1664,1.4832 1.1771,2.6081 -1.0948,1.0011 -0.6412,1.9478 0.9817,1.4868l0.1184 0.0093 -0.0108 0.1085c-0.7398,0.8907 -0.4938,1.642 0.9334,1.4942 0.3117,0.4131 -0.2804,1.4293 -0.5209,2.0186l-6.0873 6.0344 0.566 -0.9454c0.5409,-0.9653 0.8053,-2.4211 0.8053,-2.7837 0.3274,0 1.4642,0.2366 1.5368,-0.2685 0.0421,-0.2935 -0.1104,-0.5647 -0.6397,-0.776 0.147,-0.2939 0.7288,-0.1269 0.6958,-0.7439 -0.0127,-0.2347 -0.2743,-0.4434 -0.9553,-0.4434 -0.0931,-0.1862 0.0978,-0.4249 0.0844,-0.644 -0.0335,-0.5442 -0.4887,-0.8016 -0.8906,-0.2817 -0.1668,0.2155 -0.117,0.5234 -0.2827,0.689 -0.2885,0.0001 -0.7131,-0.1849 -0.9603,0.0623 -0.2974,0.5948 0.218,0.5604 0.218,0.8284 -1.2045,0 -0.2376,1.3081 0.1308,1.3081 0,0.9966 -0.3327,1.9001 -1.0072,2.6188l0 3.0548 3.0529 0c0.7243,-0.68 1.6665,-1.0521 2.6632,-1.0521 -0.0001,0.3683 1.3079,1.3352 1.3079,0.1307 0.268,0 0.2336,0.5155 0.8285,0.2181 0.2472,-0.2472 0.0871,-0.4962 0.0871,-0.7848 0.1657,-0.1657 0.4486,-0.2916 0.6642,-0.4582 0.5199,-0.402 0.2626,-0.857 -0.2818,-0.8906 -0.219,-0.0134 -0.4578,0.1775 -0.644,0.0843 0,-0.6809 -0.2087,-0.9426 -0.4434,-0.9552 -0.617,-0.0331 -0.4398,0.7211 -0.7338,0.8681 0,-0.6326 -0.3665,-0.8255 -0.6607,-0.787 -0.8439,0.1105 -0.389,1.207 -0.389,1.5344 -0.3324,0 -1.587,0.2231 -2.5379,0.6562l-1.2189 0.7915 6.0576 -6.0987c0.5894,-0.2405 1.6055,-0.8326 2.0186,-0.5209 -0.1478,1.4272 0.6035,1.6732 1.4942,0.9334l0.1085 -0.0108 0.0093 0.1184c-0.461,1.623 0.4857,2.0765 1.4869,0.9817 1.1248,1.3435 1.9504,1.5728 2.608,1.1771l-3.6949 -3.6949c-0.7648,-0.7648 -1.7687,-0.7611 -2.7727,-0.463z"/>
     <path id="_195272456" class="fil0" d="M143.441 8.5453c2.0796,2.7488 3.3504,6.1974 3.3839,9.902l1.2226 0c-0.0325,-3.8557 -1.2918,-7.4255 -3.4009,-10.3295l-0.0421 0.0125 -0.2527 0.0812 -0.262 0.09 -0.2703 0.0981 -0.2781 0.1058 -0.1004 0.0399zm0.2991 -1.5742c-3.2419,-3.7688 -8.0369,-6.1742 -13.3883,-6.2191l0 1.2225c4.8538,0.0436 9.1583,2.105 12.1667,5.4557l0.1531 -0.0618 0.2547 -0.0999 0.2576 -0.0979 0.2599 -0.0955 0.2608 -0.092 0.0355 -0.012z"/>
    </g>
    <g>
     <polygon id="_195287392" class="fil0" points="130.35,33.2506 144.845,18.7554 143.132,18.7554 130.35,31.537 "/>
     <path id="_146582312" class="fil0" d="M143.125 31.3128l0.4036 -0.4036 1.1221 1.122c0.8504,-0.8893 1.7103,-0.7936 1.7251,0.0404 -0.411,0.9426 -0.1182,1.0366 0.6795,0.4867 0.8587,-0.0381 1.2421,0.6391 0.3181,1.7979 -0.0651,0.2827 0.6143,-0.042 0.8143,0.5277 0.2471,0.3851 0.2859,0.9488 0.1611,1.6526 -0.7038,0.1248 -1.2676,0.086 -1.6527,-0.161 -0.5697,-0.2001 -0.245,-0.8795 -0.5276,-0.8144 -1.1588,0.9241 -1.836,0.5406 -1.7979,-0.318 0.5498,-0.7978 0.4559,-1.0906 -0.4868,-0.6795 -0.8339,-0.0149 -0.9297,-0.8747 -0.0404,-1.7252l-1.122 -1.122 0.4036 -0.4036zm-6.3676 5.4221l3.5748 -0.0001c0.8653,0 1.4311,-0.57 1.8305,-1.3066 0.1824,-0.6336 -0.043,-1.7376 -0.4151,-2.8926l-0.7447 0.5454c0.3421,1.1702 0.3812,2.0212 -0.0392,2.2942 -0.0568,0.0346 -0.1115,0.0571 -0.1627,0.0642 -0.7237,-0.891 -1.2879,-0.6051 -1.3733,0.3173l-0.1125 0.0354c-1.3963,-0.1236 -2.4096,0.347 -2.5578,0.9428zm2.6028 -9.7572c3.512,1.9197 7.0395,3.2923 7.6528,2.3483 0.0346,-0.0568 0.057,-0.1115 0.0641,-0.1628 -0.8909,-0.7237 -0.6051,-1.2878 0.3173,-1.3732l0.0355 -0.1126c-0.1237,-1.3963 0.3469,-2.4095 0.9427,-2.5577l0 3.5748c-0.0001,0.8653 -0.5701,1.431 -1.3066,1.8304 -1.502,0.4325 -5.6472,-1.4259 -6.8472,-2.1011l-0.1722 -0.0141 0.015 0.1714c0.253,0.4499 0.6728,1.3141 1.0755,2.2977l-0.7121 0.5828c-0.4701,-1.1511 -1.1029,-2.4463 -1.8095,-3.7392 0.298,1.0041 0.3017,2.0079 -0.4631,2.7728l-3.6949 3.6949c-0.3957,-0.6576 -0.1664,-1.4832 1.1771,-2.6081 -1.0948,-1.0011 -0.6412,-1.9478 0.9817,-1.4868l0.1184 -0.0093 -0.0108 -0.1085c-0.7398,-0.8907 -0.4938,-1.642 0.9334,-1.4942 0.3117,-0.4131 -0.2804,-1.4293 -0.5209,-2.0186l-6.0873 -6.0344 0.566 0.9454c0.5409,0.9653 0.8053,2.4211 0.8053,2.7837 0.3274,0 1.4642,-0.2366 1.5368,0.2685 0.0421,0.2935 -0.1104,0.5647 -0.6397,0.776 0.147,0.2939 0.7288,0.1269 0.6958,0.7439 -0.0127,0.2347 -0.2743,0.4434 -0.9553,0.4434 -0.0931,0.1862 0.0978,0.4249 0.0844,0.644 -0.0335,0.5442 -0.4887,0.8016 -0.8906,0.2817 -0.1668,-0.2155 -0.117,-0.5234 -0.2827,-0.689 -0.2885,-0.0001 -0.7131,0.1849 -0.9603,-0.0623 -0.2974,-0.5948 0.218,-0.5604 0.218,-0.8284 -1.2045,0 -0.2376,-1.3081 0.1308,-1.3081 0,-0.9966 -0.3327,-1.9001 -1.0072,-2.6188l0 -3.0548 3.0529 0c0.7243,0.68 1.6665,1.0521 2.6632,1.0521 -0.0001,-0.3683 1.3079,-1.3352 1.3079,-0.1307 0.268,0 0.2336,-0.5155 0.8285,-0.2181 0.2472,0.2472 0.0871,0.4962 0.0871,0.7848 0.1657,0.1657 0.4486,0.2916 0.6642,0.4582 0.5199,0.402 0.2626,0.857 -0.2818,0.8906 -0.219,0.0134 -0.4578,-0.1775 -0.644,-0.0843 0,0.6809 -0.2087,0.9426 -0.4434,0.9552 -0.617,0.0331 -0.4398,-0.7211 -0.7338,-0.8681 0,0.6326 -0.3665,0.8255 -0.6607,0.787 -0.8439,-0.1105 -0.389,-1.207 -0.389,-1.5344 -0.3324,0 -1.587,-0.2231 -2.5379,-0.6562l-1.2189 -0.7915 6.0576 6.0987c0.5894,0.2405 1.6055,0.8326 2.0186,0.5209 -0.1478,-1.4272 0.6035,-1.6732 1.4942,-0.9334l0.1085 0.0108 0.0093 -0.1184c-0.461,-1.623 0.4857,-2.0765 1.4869,-0.9817 1.1248,-1.3435 1.9504,-1.5728 2.608,-1.1771l-3.6949 3.6949c-0.7648,0.7648 -1.7687,0.7611 -2.7727,0.463z"/>
     <path id="_195280672" class="fil0" d="M143.441 28.6547c2.0796,-2.7488 3.3504,-6.1974 3.3839,-9.902l1.2226 0c-0.0325,3.8557 -1.2918,7.4255 -3.4009,10.3295l-0.0421 -0.0125 -0.2527 -0.0812 -0.262 -0.09 -0.2703 -0.0981 -0.2781 -0.1058 -0.1004 -0.0399zm0.2991 1.5742c-3.2419,3.7688 -8.0369,6.1742 -13.3883,6.2191l0 -1.2225c4.8538,-0.0436 9.1583,-2.105 12.1667,-5.4557l0.1531 0.0618 0.2547 0.0999 0.2576 0.0979 0.2599 0.0955 0.2608 0.092 0.0355 0.012z"/>
    </g>
    <g>
     <polygon id="_196314576" class="fil0" points="130.05,3.9494 115.555,18.4446 117.269,18.4446 130.05,5.663 "/>
     <path id="_147313360" class="fil0" d="M117.276 5.8872l-0.4036 0.4036 -1.1221 -1.122c-0.8504,0.8893 -1.7103,0.7936 -1.7251,-0.0404 0.411,-0.9426 0.1182,-1.0366 -0.6795,-0.4867 -0.8587,0.0381 -1.2421,-0.6391 -0.3181,-1.7979 0.0651,-0.2827 -0.6143,0.042 -0.8143,-0.5277 -0.2471,-0.3851 -0.2859,-0.9488 -0.1611,-1.6526 0.7038,-0.1248 1.2676,-0.086 1.6527,0.161 0.5697,0.2001 0.245,0.8795 0.5276,0.8144 1.1588,-0.9241 1.836,-0.5406 1.7979,0.318 -0.5498,0.7978 -0.4559,1.0906 0.4868,0.6795 0.8339,0.0149 0.9297,0.8747 0.0404,1.7252l1.122 1.122 -0.4036 0.4036zm6.3676 -5.4221l-3.5748 0.0001c-0.8653,0 -1.4311,0.57 -1.8305,1.3066 -0.1824,0.6336 0.043,1.7376 0.4151,2.8926l0.7447 -0.5454c-0.3421,-1.1702 -0.3812,-2.0212 0.0392,-2.2942 0.0568,-0.0346 0.1115,-0.0571 0.1627,-0.0642 0.7237,0.891 1.2879,0.6051 1.3733,-0.3173l0.1125 -0.0354c1.3963,0.1236 2.4096,-0.347 2.5578,-0.9428zm-2.6028 9.7572c-3.512,-1.9197 -7.0395,-3.2923 -7.6528,-2.3483 -0.0346,0.0568 -0.057,0.1115 -0.0641,0.1628 0.8909,0.7237 0.6051,1.2878 -0.3173,1.3732l-0.0355 0.1126c0.1237,1.3963 -0.3469,2.4095 -0.9427,2.5577l0 -3.5748c0.0001,-0.8653 0.5701,-1.431 1.3066,-1.8304 1.502,-0.4325 5.6472,1.4259 6.8472,2.1011l0.1722 0.0141 -0.015 -0.1714c-0.253,-0.4499 -0.6728,-1.3141 -1.0755,-2.2977l0.7121 -0.5828c0.4701,1.1511 1.1029,2.4463 1.8095,3.7392 -0.298,-1.0041 -0.3017,-2.0079 0.4631,-2.7728l3.6949 -3.6949c0.3957,0.6576 0.1664,1.4832 -1.1771,2.6081 1.0948,1.0011 0.6412,1.9478 -0.9817,1.4868l-0.1184 0.0093 0.0108 0.1085c0.7398,0.8907 0.4938,1.642 -0.9334,1.4942 -0.3117,0.4131 0.2804,1.4293 0.5209,2.0186l6.0873 6.0344 -0.566 -0.9454c-0.5409,-0.9653 -0.8053,-2.4211 -0.8053,-2.7837 -0.3274,0 -1.4642,0.2366 -1.5368,-0.2685 -0.0421,-0.2935 0.1104,-0.5647 0.6397,-0.776 -0.147,-0.2939 -0.7288,-0.1269 -0.6958,-0.7439 0.0127,-0.2347 0.2743,-0.4434 0.9553,-0.4434 0.0931,-0.1862 -0.0978,-0.4249 -0.0844,-0.644 0.0335,-0.5442 0.4887,-0.8016 0.8906,-0.2817 0.1668,0.2155 0.117,0.5234 0.2827,0.689 0.2885,0.0001 0.7131,-0.1849 0.9603,0.0623 0.2974,0.5948 -0.218,0.5604 -0.218,0.8284 1.2045,0 0.2376,1.3081 -0.1308,1.3081 0,0.9966 0.3327,1.9001 1.0072,2.6188l0 3.0548 -3.0529 0c-0.7243,-0.68 -1.6665,-1.0521 -2.6632,-1.0521 0.0001,0.3683 -1.3079,1.3352 -1.3079,0.1307 -0.268,0 -0.2336,0.5155 -0.8285,0.2181 -0.2472,-0.2472 -0.0871,-0.4962 -0.0871,-0.7848 -0.1657,-0.1657 -0.4486,-0.2916 -0.6642,-0.4582 -0.5199,-0.402 -0.2626,-0.857 0.2818,-0.8906 0.219,-0.0134 0.4578,0.1775 0.644,0.0843 0,-0.6809 0.2087,-0.9426 0.4434,-0.9552 0.617,-0.0331 0.4398,0.7211 0.7338,0.8681 0,-0.6326 0.3665,-0.8255 0.6607,-0.787 0.8439,0.1105 0.389,1.207 0.389,1.5344 0.3324,0 1.587,0.2231 2.5379,0.6562l1.2189 0.7915 -6.0576 -6.0987c-0.5894,-0.2405 -1.6055,-0.8326 -2.0186,-0.5209 0.1478,1.4272 -0.6035,1.6732 -1.4942,0.9334l-0.1085 -0.0108 -0.0093 0.1184c0.461,1.623 -0.4857,2.0765 -1.4869,0.9817 -1.1248,1.3435 -1.9504,1.5728 -2.608,1.1771l3.6949 -3.6949c0.7648,-0.7648 1.7687,-0.7611 2.7727,-0.463z"/>
     <path id="_146716528" class="fil0" d="M116.959 8.5453c-2.0796,2.7488 -3.3504,6.1974 -3.3839,9.902l-1.2226 0c0.0325,-3.8557 1.2918,-7.4255 3.4009,-10.3295l0.0421 0.0125 0.2527 0.0812 0.262 0.09 0.2703 0.0981 0.2781 0.1058 0.1004 0.0399zm-0.2991 -1.5742c3.2419,-3.7688 8.0369,-6.1742 13.3883,-6.2191l0 1.2225c-4.8538,0.0436 -9.1583,2.105 -12.1667,5.4557l-0.1531 -0.0618 -0.2547 -0.0999 -0.2576 -0.0979 -0.2599 -0.0955 -0.2608 -0.092 -0.0355 -0.012z"/>
    </g>
    <g>
     <polygon id="_196792288" class="fil0" points="130.05,33.2506 115.555,18.7554 117.269,18.7554 130.05,31.537 "/>
     <path id="_195288488" class="fil0" d="M117.276 31.3128l-0.4036 -0.4036 -1.1221 1.122c-0.8504,-0.8893 -1.7103,-0.7936 -1.7251,0.0404 0.411,0.9426 0.1182,1.0366 -0.6795,0.4867 -0.8587,-0.0381 -1.2421,0.6391 -0.3181,1.7979 0.0651,0.2827 -0.6143,-0.042 -0.8143,0.5277 -0.2471,0.3851 -0.2859,0.9488 -0.1611,1.6526 0.7038,0.1248 1.2676,0.086 1.6527,-0.161 0.5697,-0.2001 0.245,-0.8795 0.5276,-0.8144 1.1588,0.9241 1.836,0.5406 1.7979,-0.318 -0.5498,-0.7978 -0.4559,-1.0906 0.4868,-0.6795 0.8339,-0.0149 0.9297,-0.8747 0.0404,-1.7252l1.122 -1.122 -0.4036 -0.4036zm6.3676 5.4221l-3.5748 -0.0001c-0.8653,0 -1.4311,-0.57 -1.8305,-1.3066 -0.1824,-0.6336 0.043,-1.7376 0.4151,-2.8926l0.7447 0.5454c-0.3421,1.1702 -0.3812,2.0212 0.0392,2.2942 0.0568,0.0346 0.1115,0.0571 0.1627,0.0642 0.7237,-0.891 1.2879,-0.6051 1.3733,0.3173l0.1125 0.0354c1.3963,-0.1236 2.4096,0.347 2.5578,0.9428zm-2.6028 -9.7572c-3.512,1.9197 -7.0395,3.2923 -7.6528,2.3483 -0.0346,-0.0568 -0.057,-0.1115 -0.0641,-0.1628 0.8909,-0.7237 0.6051,-1.2878 -0.3173,-1.3732l-0.0355 -0.1126c0.1237,-1.3963 -0.3469,-2.4095 -0.9427,-2.5577l0 3.5748c0.0001,0.8653 0.5701,1.431 1.3066,1.8304 1.502,0.4325 5.6472,-1.4259 6.8472,-2.1011l0.1722 -0.0141 -0.015 0.1714c-0.253,0.4499 -0.6728,1.3141 -1.0755,2.2977l0.7121 0.5828c0.4701,-1.1511 1.1029,-2.4463 1.8095,-3.7392 -0.298,1.0041 -0.3017,2.0079 0.4631,2.7728l3.6949 3.6949c0.3957,-0.6576 0.1664,-1.4832 -1.1771,-2.6081 1.0948,-1.0011 0.6412,-1.9478 -0.9817,-1.4868l-0.1184 -0.0093 0.0108 -0.1085c0.7398,-0.8907 0.4938,-1.642 -0.9334,-1.4942 -0.3117,-0.4131 0.2804,-1.4293 0.5209,-2.0186l6.0873 -6.0344 -0.566 0.9454c-0.5409,0.9653 -0.8053,2.4211 -0.8053,2.7837 -0.3274,0 -1.4642,-0.2366 -1.5368,0.2685 -0.0421,0.2935 0.1104,0.5647 0.6397,0.776 -0.147,0.2939 -0.7288,0.1269 -0.6958,0.7439 0.0127,0.2347 0.2743,0.4434 0.9553,0.4434 0.0931,0.1862 -0.0978,0.4249 -0.0844,0.644 0.0335,0.5442 0.4887,0.8016 0.8906,0.2817 0.1668,-0.2155 0.117,-0.5234 0.2827,-0.689 0.2885,-0.0001 0.7131,0.1849 0.9603,-0.0623 0.2974,-0.5948 -0.218,-0.5604 -0.218,-0.8284 1.2045,0 0.2376,-1.3081 -0.1308,-1.3081 0,-0.9966 0.3327,-1.9001 1.0072,-2.6188l0 -3.0548 -3.0529 0c-0.7243,0.68 -1.6665,1.0521 -2.6632,1.0521 0.0001,-0.3683 -1.3079,-1.3352 -1.3079,-0.1307 -0.268,0 -0.2336,-0.5155 -0.8285,-0.2181 -0.2472,0.2472 -0.0871,0.4962 -0.0871,0.7848 -0.1657,0.1657 -0.4486,0.2916 -0.6642,0.4582 -0.5199,0.402 -0.2626,0.857 0.2818,0.8906 0.219,0.0134 0.4578,-0.1775 0.644,-0.0843 0,0.6809 0.2087,0.9426 0.4434,0.9552 0.617,0.0331 0.4398,-0.7211 0.7338,-0.8681 0,0.6326 0.3665,0.8255 0.6607,0.787 0.8439,-0.1105 0.389,-1.207 0.389,-1.5344 0.3324,0 1.587,-0.2231 2.5379,-0.6562l1.2189 -0.7915 -6.0576 6.0987c-0.5894,0.2405 -1.6055,0.8326 -2.0186,0.5209 0.1478,-1.4272 -0.6035,-1.6732 -1.4942,-0.9334l-0.1085 0.0108 -0.0093 -0.1184c0.461,-1.623 -0.4857,-2.0765 -1.4869,-0.9817 -1.1248,-1.3435 -1.9504,-1.5728 -2.608,-1.1771l3.6949 3.6949c0.7648,0.7648 1.7687,0.7611 2.7727,0.463z"/>
     <path id="_196792200" class="fil0" d="M116.959 28.6547c-2.0796,-2.7488 -3.3504,-6.1974 -3.3839,-9.902l-1.2226 0c0.0325,3.8557 1.2918,7.4255 3.4009,10.3295l0.0421 -0.0125 0.2527 -0.0812 0.262 -0.09 0.2703 -0.0981 0.2781 -0.1058 0.1004 -0.0399zm-0.2991 1.5742c3.2419,3.7688 8.0369,6.1742 13.3883,6.2191l0 -1.2225c-4.8538,-0.0436 -9.1583,-2.105 -12.1667,-5.4557l-0.1531 0.0618 -0.2547 0.0999 -0.2576 0.0979 -0.2599 0.0955 -0.2608 0.092 -0.0355 0.012z"/>
    </g>
   </g>
   <g>
    <g>
     <polygon id="_195416608" class="fil0" points="55.9502,3.9494 70.4454,18.4446 68.7318,18.4446 55.9502,5.663 "/>
     <path id="_195416936" class="fil0" d="M68.7248 5.8872l0.4036 0.4036 1.1221 -1.122c0.8504,0.8893 1.7103,0.7936 1.7251,-0.0404 -0.411,-0.9426 -0.1182,-1.0366 0.6795,-0.4867 0.8587,0.0381 1.2421,-0.6391 0.3181,-1.7979 -0.0651,-0.2827 0.6143,0.042 0.8143,-0.5277 0.2471,-0.3851 0.2859,-0.9488 0.1611,-1.6526 -0.7038,-0.1248 -1.2676,-0.086 -1.6527,0.161 -0.5697,0.2001 -0.245,0.8795 -0.5276,0.8144 -1.1588,-0.9241 -1.836,-0.5406 -1.7979,0.318 0.5498,0.7978 0.4559,1.0906 -0.4868,0.6795 -0.8339,0.0149 -0.9297,0.8747 -0.0404,1.7252l-1.122 1.122 0.4036 0.4036zm-6.3676 -5.4221l3.5748 0.0001c0.8653,0 1.4311,0.57 1.8305,1.3066 0.1824,0.6336 -0.043,1.7376 -0.4151,2.8926l-0.7447 -0.5454c0.3421,-1.1702 0.3812,-2.0212 -0.0392,-2.2942 -0.0568,-0.0346 -0.1115,-0.0571 -0.1627,-0.0642 -0.7237,0.891 -1.2879,0.6051 -1.3733,-0.3173l-0.1125 -0.0354c-1.3963,0.1236 -2.4096,-0.347 -2.5578,-0.9428zm2.6028 9.7572c3.512,-1.9197 7.0395,-3.2923 7.6528,-2.3483 0.0346,0.0568 0.057,0.1115 0.0641,0.1628 -0.8909,0.7237 -0.6051,1.2878 0.3173,1.3732l0.0355 0.1126c-0.1237,1.3963 0.3469,2.4095 0.9427,2.5577l0 -3.5748c-0.0001,-0.8653 -0.5701,-1.431 -1.3066,-1.8304 -1.502,-0.4325 -5.6472,1.4259 -6.8472,2.1011l-0.1722 0.0141 0.015 -0.1714c0.253,-0.4499 0.6728,-1.3141 1.0755,-2.2977l-0.7121 -0.5828c-0.4701,1.1511 -1.1029,2.4463 -1.8095,3.7392 0.298,-1.0041 0.3017,-2.0079 -0.4631,-2.7728l-3.6949 -3.6949c-0.3957,0.6576 -0.1664,1.4832 1.1771,2.6081 -1.0948,1.0011 -0.6412,1.9478 0.9817,1.4868l0.1184 0.0093 -0.0108 0.1085c-0.7398,0.8907 -0.4938,1.642 0.9334,1.4942 0.3117,0.4131 -0.2804,1.4293 -0.5209,2.0186l-6.0873 6.0344 0.566 -0.9454c0.5409,-0.9653 0.8053,-2.4211 0.8053,-2.7837 0.3274,0 1.4642,0.2366 1.5368,-0.2685 0.0421,-0.2935 -0.1104,-0.5647 -0.6397,-0.776 0.147,-0.2939 0.7288,-0.1269 0.6958,-0.7439 -0.0127,-0.2347 -0.2743,-0.4434 -0.9553,-0.4434 -0.0931,-0.1862 0.0978,-0.4249 0.0844,-0.644 -0.0335,-0.5442 -0.4887,-0.8016 -0.8906,-0.2817 -0.1668,0.2155 -0.117,0.5234 -0.2827,0.689 -0.2885,0.0001 -0.7131,-0.1849 -0.9603,0.0623 -0.2974,0.5948 0.218,0.5604 0.218,0.8284 -1.2045,0 -0.2376,1.3081 0.1308,1.3081 0,0.9966 -0.3327,1.9001 -1.0072,2.6188l0 3.0548 3.0529 0c0.7243,-0.68 1.6665,-1.0521 2.6632,-1.0521 -0.0001,0.3683 1.3079,1.3352 1.3079,0.1307 0.268,0 0.2336,0.5155 0.8285,0.2181 0.2472,-0.2472 0.0871,-0.4962 0.0871,-0.7848 0.1657,-0.1657 0.4486,-0.2916 0.6642,-0.4582 0.5199,-0.402 0.2626,-0.857 -0.2818,-0.8906 -0.219,-0.0134 -0.4578,0.1775 -0.644,0.0843 0,-0.6809 -0.2087,-0.9426 -0.4434,-0.9552 -0.617,-0.0331 -0.4398,0.7211 -0.7338,0.8681 0,-0.6326 -0.3665,-0.8255 -0.6607,-0.787 -0.8439,0.1105 -0.389,1.207 -0.389,1.5344 -0.3324,0 -1.587,0.2231 -2.5379,0.6562l-1.2189 0.7915 6.0576 -6.0987c0.5894,-0.2405 1.6055,-0.8326 2.0186,-0.5209 -0.1478,1.4272 0.6035,1.6732 1.4942,0.9334l0.1085 -0.0108 0.0093 0.1184c-0.461,1.623 0.4857,2.0765 1.4869,0.9817 1.1248,1.3435 1.9504,1.5728 2.608,1.1771l-3.6949 -3.6949c-0.7648,-0.7648 -1.7687,-0.7611 -2.7727,-0.463z"/>
     <path id="_195412344" class="fil0" d="M69.0414 8.5453c2.0796,2.7488 3.3504,6.1974 3.3839,9.902l1.2226 0c-0.0325,-3.8557 -1.2918,-7.4255 -3.4009,-10.3295l-0.0421 0.0125 -0.2527 0.0812 -0.262 0.09 -0.2703 0.0981 -0.2781 0.1058 -0.1004 0.0399zm0.2991 -1.5742c-3.2419,-3.7688 -8.0369,-6.1742 -13.3883,-6.2191l0 1.2225c4.8538,0.0436 9.1583,2.105 12.1667,5.4557l0.1531 -0.0618 0.2547 -0.0999 0.2576 -0.0979 0.2599 -0.0955 0.2608 -0.092 0.0355 -0.012z"/>
    </g>
    <g>
     <polygon id="_195260296" class="fil0" points="55.9502,33.2506 70.4454,18.7554 68.7318,18.7554 55.9502,31.537 "/>
     <path id="_195413328" class="fil0" d="M68.7248 31.3128l0.4036 -0.4036 1.1221 1.122c0.8504,-0.8893 1.7103,-0.7936 1.7251,0.0404 -0.411,0.9426 -0.1182,1.0366 0.6795,0.4867 0.8587,-0.0381 1.2421,0.6391 0.3181,1.7979 -0.0651,0.2827 0.6143,-0.042 0.8143,0.5277 0.2471,0.3851 0.2859,0.9488 0.1611,1.6526 -0.7038,0.1248 -1.2676,0.086 -1.6527,-0.161 -0.5697,-0.2001 -0.245,-0.8795 -0.5276,-0.8144 -1.1588,0.9241 -1.836,0.5406 -1.7979,-0.318 0.5498,-0.7978 0.4559,-1.0906 -0.4868,-0.6795 -0.8339,-0.0149 -0.9297,-0.8747 -0.0404,-1.7252l-1.122 -1.122 0.4036 -0.4036zm-6.3676 5.4221l3.5748 -0.0001c0.8653,0 1.4311,-0.57 1.8305,-1.3066 0.1824,-0.6336 -0.043,-1.7376 -0.4151,-2.8926l-0.7447 0.5454c0.3421,1.1702 0.3812,2.0212 -0.0392,2.2942 -0.0568,0.0346 -0.1115,0.0571 -0.1627,0.0642 -0.7237,-0.891 -1.2879,-0.6051 -1.3733,0.3173l-0.1125 0.0354c-1.3963,-0.1236 -2.4096,0.347 -2.5578,0.9428zm2.6028 -9.7572c3.512,1.9197 7.0395,3.2923 7.6528,2.3483 0.0346,-0.0568 0.057,-0.1115 0.0641,-0.1628 -0.8909,-0.7237 -0.6051,-1.2878 0.3173,-1.3732l0.0355 -0.1126c-0.1237,-1.3963 0.3469,-2.4095 0.9427,-2.5577l0 3.5748c-0.0001,0.8653 -0.5701,1.431 -1.3066,1.8304 -1.502,0.4325 -5.6472,-1.4259 -6.8472,-2.1011l-0.1722 -0.0141 0.015 0.1714c0.253,0.4499 0.6728,1.3141 1.0755,2.2977l-0.7121 0.5828c-0.4701,-1.1511 -1.1029,-2.4463 -1.8095,-3.7392 0.298,1.0041 0.3017,2.0079 -0.4631,2.7728l-3.6949 3.6949c-0.3957,-0.6576 -0.1664,-1.4832 1.1771,-2.6081 -1.0948,-1.0011 -0.6412,-1.9478 0.9817,-1.4868l0.1184 -0.0093 -0.0108 -0.1085c-0.7398,-0.8907 -0.4938,-1.642 0.9334,-1.4942 0.3117,-0.4131 -0.2804,-1.4293 -0.5209,-2.0186l-6.0873 -6.0344 0.566 0.9454c0.5409,0.9653 0.8053,2.4211 0.8053,2.7837 0.3274,0 1.4642,-0.2366 1.5368,0.2685 0.0421,0.2935 -0.1104,0.5647 -0.6397,0.776 0.147,0.2939 0.7288,0.1269 0.6958,0.7439 -0.0127,0.2347 -0.2743,0.4434 -0.9553,0.4434 -0.0931,0.1862 0.0978,0.4249 0.0844,0.644 -0.0335,0.5442 -0.4887,0.8016 -0.8906,0.2817 -0.1668,-0.2155 -0.117,-0.5234 -0.2827,-0.689 -0.2885,-0.0001 -0.7131,0.1849 -0.9603,-0.0623 -0.2974,-0.5948 0.218,-0.5604 0.218,-0.8284 -1.2045,0 -0.2376,-1.3081 0.1308,-1.3081 0,-0.9966 -0.3327,-1.9001 -1.0072,-2.6188l0 -3.0548 3.0529 0c0.7243,0.68 1.6665,1.0521 2.6632,1.0521 -0.0001,-0.3683 1.3079,-1.3352 1.3079,-0.1307 0.268,0 0.2336,-0.5155 0.8285,-0.2181 0.2472,0.2472 0.0871,0.4962 0.0871,0.7848 0.1657,0.1657 0.4486,0.2916 0.6642,0.4582 0.5199,0.402 0.2626,0.857 -0.2818,0.8906 -0.219,0.0134 -0.4578,-0.1775 -0.644,-0.0843 0,0.6809 -0.2087,0.9426 -0.4434,0.9552 -0.617,0.0331 -0.4398,-0.7211 -0.7338,-0.8681 0,0.6326 -0.3665,0.8255 -0.6607,0.787 -0.8439,-0.1105 -0.389,-1.207 -0.389,-1.5344 -0.3324,0 -1.587,-0.2231 -2.5379,-0.6562l-1.2189 -0.7915 6.0576 6.0987c0.5894,0.2405 1.6055,0.8326 2.0186,0.5209 -0.1478,-1.4272 0.6035,-1.6732 1.4942,-0.9334l0.1085 0.0108 0.0093 -0.1184c-0.461,-1.623 0.4857,-2.0765 1.4869,-0.9817 1.1248,-1.3435 1.9504,-1.5728 2.608,-1.1771l-3.6949 3.6949c-0.7648,0.7648 -1.7687,0.7611 -2.7727,0.463z"/>
     <path id="_195415624" class="fil0" d="M69.0414 28.6547c2.0796,-2.7488 3.3504,-6.1974 3.3839,-9.902l1.2226 0c-0.0325,3.8557 -1.2918,7.4255 -3.4009,10.3295l-0.0421 -0.0125 -0.2527 -0.0812 -0.262 -0.09 -0.2703 -0.0981 -0.2781 -0.1058 -0.1004 -0.0399zm0.2991 1.5742c-3.2419,3.7688 -8.0369,6.1742 -13.3883,6.2191l0 -1.2225c4.8538,-0.0436 9.1583,-2.105 12.1667,-5.4557l0.1531 0.0618 0.2547 0.0999 0.2576 0.0979 0.2599 0.0955 0.2608 0.092 0.0355 0.012z"/>
    </g>
    <g>
     <polygon id="_147312704" class="fil0" points="55.6502,3.9494 41.155,18.4446 42.8686,18.4446 55.6502,5.663 "/>
     <path id="_195285200" class="fil0" d="M42.8756 5.8872l-0.4036 0.4036 -1.1221 -1.122c-0.8504,0.8893 -1.7103,0.7936 -1.7251,-0.0404 0.411,-0.9426 0.1182,-1.0366 -0.6795,-0.4867 -0.8587,0.0381 -1.2421,-0.6391 -0.3181,-1.7979 0.0651,-0.2827 -0.6143,0.042 -0.8143,-0.5277 -0.2471,-0.3851 -0.2859,-0.9488 -0.1611,-1.6526 0.7038,-0.1248 1.2676,-0.086 1.6527,0.161 0.5697,0.2001 0.245,0.8795 0.5276,0.8144 1.1588,-0.9241 1.836,-0.5406 1.7979,0.318 -0.5498,0.7978 -0.4559,1.0906 0.4868,0.6795 0.8339,0.0149 0.9297,0.8747 0.0404,1.7252l1.122 1.122 -0.4036 0.4036zm6.3676 -5.4221l-3.5748 0.0001c-0.8653,0 -1.4311,0.57 -1.8305,1.3066 -0.1824,0.6336 0.043,1.7376 0.4151,2.8926l0.7447 -0.5454c-0.3421,-1.1702 -0.3812,-2.0212 0.0392,-2.2942 0.0568,-0.0346 0.1115,-0.0571 0.1627,-0.0642 0.7237,0.891 1.2879,0.6051 1.3733,-0.3173l0.1125 -0.0354c1.3963,0.1236 2.4096,-0.347 2.5578,-0.9428zm-2.6028 9.7572c-3.512,-1.9197 -7.0395,-3.2923 -7.6528,-2.3483 -0.0346,0.0568 -0.057,0.1115 -0.0641,0.1628 0.8909,0.7237 0.6051,1.2878 -0.3173,1.3732l-0.0355 0.1126c0.1237,1.3963 -0.3469,2.4095 -0.9427,2.5577l0 -3.5748c0.0001,-0.8653 0.5701,-1.431 1.3066,-1.8304 1.502,-0.4325 5.6472,1.4259 6.8472,2.1011l0.1722 0.0141 -0.015 -0.1714c-0.253,-0.4499 -0.6728,-1.3141 -1.0755,-2.2977l0.7121 -0.5828c0.4701,1.1511 1.1029,2.4463 1.8095,3.7392 -0.298,-1.0041 -0.3017,-2.0079 0.4631,-2.7728l3.6949 -3.6949c0.3957,0.6576 0.1664,1.4832 -1.1771,2.6081 1.0948,1.0011 0.6412,1.9478 -0.9817,1.4868l-0.1184 0.0093 0.0108 0.1085c0.7398,0.8907 0.4938,1.642 -0.9334,1.4942 -0.3117,0.4131 0.2804,1.4293 0.5209,2.0186l6.0873 6.0344 -0.566 -0.9454c-0.5409,-0.9653 -0.8053,-2.4211 -0.8053,-2.7837 -0.3274,0 -1.4642,0.2366 -1.5368,-0.2685 -0.0421,-0.2935 0.1104,-0.5647 0.6397,-0.776 -0.147,-0.2939 -0.7288,-0.1269 -0.6958,-0.7439 0.0127,-0.2347 0.2743,-0.4434 0.9553,-0.4434 0.0931,-0.1862 -0.0978,-0.4249 -0.0844,-0.644 0.0335,-0.5442 0.4887,-0.8016 0.8906,-0.2817 0.1668,0.2155 0.117,0.5234 0.2827,0.689 0.2885,0.0001 0.7131,-0.1849 0.9603,0.0623 0.2974,0.5948 -0.218,0.5604 -0.218,0.8284 1.2045,0 0.2376,1.3081 -0.1308,1.3081 0,0.9966 0.3327,1.9001 1.0072,2.6188l0 3.0548 -3.0529 0c-0.7243,-0.68 -1.6665,-1.0521 -2.6632,-1.0521 0.0001,0.3683 -1.3079,1.3352 -1.3079,0.1307 -0.268,0 -0.2336,0.5155 -0.8285,0.2181 -0.2472,-0.2472 -0.0871,-0.4962 -0.0871,-0.7848 -0.1657,-0.1657 -0.4486,-0.2916 -0.6642,-0.4582 -0.5199,-0.402 -0.2626,-0.857 0.2818,-0.8906 0.219,-0.0134 0.4578,0.1775 0.644,0.0843 0,-0.6809 0.2087,-0.9426 0.4434,-0.9552 0.617,-0.0331 0.4398,0.7211 0.7338,0.8681 0,-0.6326 0.3665,-0.8255 0.6607,-0.787 0.8439,0.1105 0.389,1.207 0.389,1.5344 0.3324,0 1.587,0.2231 2.5379,0.6562l1.2189 0.7915 -6.0576 -6.0987c-0.5894,-0.2405 -1.6055,-0.8326 -2.0186,-0.5209 0.1478,1.4272 -0.6035,1.6732 -1.4942,0.9334l-0.1085 -0.0108 -0.0093 0.1184c0.461,1.623 -0.4857,2.0765 -1.4869,0.9817 -1.1248,1.3435 -1.9504,1.5728 -2.608,1.1771l3.6949 -3.6949c0.7648,-0.7648 1.7687,-0.7611 2.7727,-0.463z"/>
     <path id="_145553768" class="fil0" d="M42.559 8.5453c-2.0796,2.7488 -3.3504,6.1974 -3.3839,9.902l-1.2226 0c0.0325,-3.8557 1.2918,-7.4255 3.4009,-10.3295l0.0421 0.0125 0.2527 0.0812 0.262 0.09 0.2703 0.0981 0.2781 0.1058 0.1004 0.0399zm-0.2991 -1.5742c3.2419,-3.7688 8.0369,-6.1742 13.3883,-6.2191l0 1.2225c-4.8538,0.0436 -9.1583,2.105 -12.1667,5.4557l-0.1531 -0.0618 -0.2547 -0.0999 -0.2576 -0.0979 -0.2599 -0.0955 -0.2608 -0.092 -0.0355 -0.012z"/>
    </g>
    <g>
     <polygon id="_195248528" class="fil0" points="55.6502,33.2506 41.155,18.7554 42.8686,18.7554 55.6502,31.537 "/>
     <path id="_195245456" class="fil0" d="M42.8756 31.3128l-0.4036 -0.4036 -1.1221 1.122c-0.8504,-0.8893 -1.7103,-0.7936 -1.7251,0.0404 0.411,0.9426 0.1182,1.0366 -0.6795,0.4867 -0.8587,-0.0381 -1.2421,0.6391 -0.3181,1.7979 0.0651,0.2827 -0.6143,-0.042 -0.8143,0.5277 -0.2471,0.3851 -0.2859,0.9488 -0.1611,1.6526 0.7038,0.1248 1.2676,0.086 1.6527,-0.161 0.5697,-0.2001 0.245,-0.8795 0.5276,-0.8144 1.1588,0.9241 1.836,0.5406 1.7979,-0.318 -0.5498,-0.7978 -0.4559,-1.0906 0.4868,-0.6795 0.8339,-0.0149 0.9297,-0.8747 0.0404,-1.7252l1.122 -1.122 -0.4036 -0.4036zm6.3676 5.4221l-3.5748 -0.0001c-0.8653,0 -1.4311,-0.57 -1.8305,-1.3066 -0.1824,-0.6336 0.043,-1.7376 0.4151,-2.8926l0.7447 0.5454c-0.3421,1.1702 -0.3812,2.0212 0.0392,2.2942 0.0568,0.0346 0.1115,0.0571 0.1627,0.0642 0.7237,-0.891 1.2879,-0.6051 1.3733,0.3173l0.1125 0.0354c1.3963,-0.1236 2.4096,0.347 2.5578,0.9428zm-2.6028 -9.7572c-3.512,1.9197 -7.0395,3.2923 -7.6528,2.3483 -0.0346,-0.0568 -0.057,-0.1115 -0.0641,-0.1628 0.8909,-0.7237 0.6051,-1.2878 -0.3173,-1.3732l-0.0355 -0.1126c0.1237,-1.3963 -0.3469,-2.4095 -0.9427,-2.5577l0 3.5748c0.0001,0.8653 0.5701,1.431 1.3066,1.8304 1.502,0.4325 5.6472,-1.4259 6.8472,-2.1011l0.1722 -0.0141 -0.015 0.1714c-0.253,0.4499 -0.6728,1.3141 -1.0755,2.2977l0.7121 0.5828c0.4701,-1.1511 1.1029,-2.4463 1.8095,-3.7392 -0.298,1.0041 -0.3017,2.0079 0.4631,2.7728l3.6949 3.6949c0.3957,-0.6576 0.1664,-1.4832 -1.1771,-2.6081 1.0948,-1.0011 0.6412,-1.9478 -0.9817,-1.4868l-0.1184 -0.0093 0.0108 -0.1085c0.7398,-0.8907 0.4938,-1.642 -0.9334,-1.4942 -0.3117,-0.4131 0.2804,-1.4293 0.5209,-2.0186l6.0873 -6.0344 -0.566 0.9454c-0.5409,0.9653 -0.8053,2.4211 -0.8053,2.7837 -0.3274,0 -1.4642,-0.2366 -1.5368,0.2685 -0.0421,0.2935 0.1104,0.5647 0.6397,0.776 -0.147,0.2939 -0.7288,0.1269 -0.6958,0.7439 0.0127,0.2347 0.2743,0.4434 0.9553,0.4434 0.0931,0.1862 -0.0978,0.4249 -0.0844,0.644 0.0335,0.5442 0.4887,0.8016 0.8906,0.2817 0.1668,-0.2155 0.117,-0.5234 0.2827,-0.689 0.2885,-0.0001 0.7131,0.1849 0.9603,-0.0623 0.2974,-0.5948 -0.218,-0.5604 -0.218,-0.8284 1.2045,0 0.2376,-1.3081 -0.1308,-1.3081 0,-0.9966 0.3327,-1.9001 1.0072,-2.6188l0 -3.0548 -3.0529 0c-0.7243,0.68 -1.6665,1.0521 -2.6632,1.0521 0.0001,-0.3683 -1.3079,-1.3352 -1.3079,-0.1307 -0.268,0 -0.2336,-0.5155 -0.8285,-0.2181 -0.2472,0.2472 -0.0871,0.4962 -0.0871,0.7848 -0.1657,0.1657 -0.4486,0.2916 -0.6642,0.4582 -0.5199,0.402 -0.2626,0.857 0.2818,0.8906 0.219,0.0134 0.4578,-0.1775 0.644,-0.0843 0,0.6809 0.2087,0.9426 0.4434,0.9552 0.617,0.0331 0.4398,-0.7211 0.7338,-0.8681 0,0.6326 0.3665,0.8255 0.6607,0.787 0.8439,-0.1105 0.389,-1.207 0.389,-1.5344 0.3324,0 1.587,-0.2231 2.5379,-0.6562l1.2189 -0.7915 -6.0576 6.0987c-0.5894,0.2405 -1.6055,0.8326 -2.0186,0.5209 0.1478,-1.4272 -0.6035,-1.6732 -1.4942,-0.9334l-0.1085 0.0108 -0.0093 -0.1184c0.461,-1.623 -0.4857,-2.0765 -1.4869,-0.9817 -1.1248,-1.3435 -1.9504,-1.5728 -2.608,-1.1771l3.6949 3.6949c0.7648,0.7648 1.7687,0.7611 2.7727,0.463z"/>
     <path id="_146020288" class="fil0" d="M42.559 28.6547c-2.0796,-2.7488 -3.3504,-6.1974 -3.3839,-9.902l-1.2226 0c0.0325,3.8557 1.2918,7.4255 3.4009,10.3295l0.0421 -0.0125 0.2527 -0.0812 0.262 -0.09 0.2703 -0.0981 0.2781 -0.1058 0.1004 -0.0399zm-0.2991 1.5742c3.2419,3.7688 8.0369,6.1742 13.3883,6.2191l0 -1.2225c-4.8538,-0.0436 -9.1583,-2.105 -12.1667,-5.4557l-0.1531 0.0618 -0.2547 0.0999 -0.2576 0.0979 -0.2599 0.0955 -0.2608 0.092 -0.0355 0.012z"/>
    </g>
   </g>
  </g>
 </g>
</svg>
